<?xml version="1.0" encoding="UTF-8"?>
<svg version="1.1" xmlns="http://www.w3.org/2000/svg" width="2761" height="2418">
<path d="M0 0 C2.97 0 5.94 0 9 0 C8.67 0.66 8.34 1.32 8 2 C10.64 2.33 13.28 2.66 16 3 C16 2.34 16 1.68 16 1 C19.3 1 22.6 1 26 1 C26 1.66 26 2.32 26 3 C26.66 3 27.32 3 28 3 C28 2.34 28 1.68 28 1 C29.64574566 0.97311849 31.29161413 0.95365877 32.9375 0.9375 C33.85402344 0.92589844 34.77054688 0.91429687 35.71484375 0.90234375 C38 1 38 1 39 2 C39 1.67 39 1.34 39 1 C42.63 1 46.26 1 50 1 C50 2.65 50 4.3 50 6 C51.57201172 5.96519531 51.57201172 5.96519531 53.17578125 5.9296875 C54.55468037 5.91092697 55.9335872 5.89272707 57.3125 5.875 C58.00279297 5.85824219 58.69308594 5.84148438 59.40429688 5.82421875 C63.17135396 5.78782206 64.78431704 5.85621136 68 8 C68 7.34 68 6.68 68 6 C70.31 6 72.62 6 75 6 C75 6.66 75 7.32 75 8 C76.65 8 78.3 8 80 8 C80 8.66 80 9.32 80 10 C80.99 10.33 81.98 10.66 83 11 C83.66 11.33 84.32 11.66 85 12 C85 11.34 85 10.68 85 10 C90.45454545 9.63636364 90.45454545 9.63636364 92.875 11.25 C94 13 94 13 94 17 C96.31 17 98.62 17 101 17 C101 17.66 101 18.32 101 19 C103.31 19 105.62 19 108 19 C108 20.65 108 22.3 108 24 C110.64 24 113.28 24 116 24 C116 24.66 116 25.32 116 26 C116.66 26 117.32 26 118 26 C118 25.34 118 24.68 118 24 C120.64 24 123.28 24 126 24 C126 25.65 126 27.3 126 29 C126.66 29 127.32 29 128 29 C128 29.66 128 30.32 128 31 C128.99 31 129.98 31 131 31 C131 31.66 131 32.32 131 33 C132.32 33 133.64 33 135 33 C135 33.66 135 34.32 135 35 C135.66 35 136.32 35 137 35 C138.625 36.25 138.625 36.25 140 38 C140 39.32 140 40.64 140 42 C142.97 42 145.94 42 149 42 C149 42.99 149 43.98 149 45 C149.66 45 150.32 45 151 45 C151 45.66 151 46.32 151 47 C152.65 47 154.3 47 156 47 C156 47.66 156 48.32 156 49 C156.99 49.33 157.98 49.66 159 50 C158.67 51.98 158.34 53.96 158 56 C158.92232422 55.94779297 158.92232422 55.94779297 159.86328125 55.89453125 C160.67152344 55.86746094 161.47976563 55.84039063 162.3125 55.8125 C163.51326172 55.76029297 163.51326172 55.76029297 164.73828125 55.70703125 C167 56 167 56 168.78125 57.3125 C170.59219053 59.81995612 170.20005332 61.99920026 170 65 C170.66 65 171.32 65 172 65 C172 65.99 172 66.98 172 68 C173.093125 67.938125 174.18625 67.87625 175.3125 67.8125 C179 68 179 68 180.9375 69.125 C182.46639539 71.8230507 182.25912365 73.95529712 182 77 C181.67 77.66 181.34 78.32 181 79 C183.31 79 185.62 79 188 79 C188 79.99 188 80.98 188 82 C188.99 82 189.98 82 191 82 C191 82.66 191 83.32 191 84 C190.34 84.33 189.68 84.66 189 85 C190.98 85.33 192.96 85.66 195 86 C195 87.65 195 89.3 195 91 C196.65 91 198.3 91 200 91 C200 93.31 200 95.62 200 98 C201.32 98 202.64 98 204 98 C204 98.66 204 99.32 204 100 C204.66 100 205.32 100 206 100 C206 100.66 206 101.32 206 102 C206.99 102 207.98 102 209 102 C209 104.97 209 107.94 209 111 C211.31 111 213.62 111 216 111 C216 112.65 216 114.3 216 116 C216.66 116 217.32 116 218 116 C218 117.32 218 118.64 218 120 C218.99 120.33 219.98 120.66 221 121 C221.70381157 122.98723268 222.3711811 124.98777953 223 127 C223.66 127.33 224.32 127.66 225 128 C225 129.32 225 130.64 225 132 C226.65 132 228.3 132 230 132 C230 133.65 230 135.3 230 137 C231.32 137 232.64 137 234 137 C234 137.66 234 138.32 234 139 C234.66 139 235.32 139 236 139 C236 139.66 236 140.32 236 141 C236.99 141 237.98 141 239 141 C239 142.65 239 144.3 239 146 C239.66 146 240.32 146 241 146 C241 147.65 241 149.3 241 151 C242.65 151 244.3 151 246 151 C246 152.98 246 154.96 246 157 C246.556875 157.0825 247.11375 157.165 247.6875 157.25 C250.73677919 158.23895541 252.65189963 159.84757466 255 162 C255 162.66 255 163.32 255 164 C255.66 164 256.32 164 257 164 C257 165.65 257 167.3 257 169 C257.99 169 258.98 169 260 169 C260 170.32 260 171.64 260 173 C261.32 173.33 262.64 173.66 264 174 C264 175.98 264 177.96 264 180 C265.65 180.33 267.3 180.66 269 181 C269 181.66 269 182.32 269 183 C271.31 183.66 273.62 184.32 276 185 C276 184.34 276 183.68 276 183 C277.65 183 279.3 183 281 183 C280.96519531 181.57107422 280.96519531 181.57107422 280.9296875 180.11328125 C280.91164063 178.85902344 280.89359375 177.60476563 280.875 176.3125 C280.85179687 175.07113281 280.82859375 173.82976562 280.8046875 172.55078125 C280.98967979 169.18762143 281.54232105 167.0014413 283 164 C283.66 164 284.32 164 285 164 C285 162.02 285 160.04 285 158 C285.99 157.67 286.98 157.34 288 157 C288 156.34 288 155.68 288 155 C288.66 155 289.32 155 290 155 C290 153.35 290 151.7 290 150 C289.01 150 288.02 150 287 150 C287 148.68 287 147.36 287 146 C287.99 146 288.98 146 290 146 C290 145.34 290 144.68 290 144 C290.66 144 291.32 144 292 144 C291.938125 142.329375 291.938125 142.329375 291.875 140.625 C292 137 292 137 294 135 C294.99 134.67 295.98 134.34 297 134 C297 133.34 297 132.68 297 132 C297.66 132 298.32 132 299 132 C299 129.69 299 127.38 299 125 C300.485 124.505 300.485 124.505 302 124 C301.67 123.67 301.34 123.34 301 123 C300.95907063 120.66702567 300.95758277 118.33294775 301 116 C301.66 116 302.32 116 303 116 C304.24253349 113.18359075 305.0128977 110.89036956 305.375 107.8125 C306 105 306 105 308.0625 103.625 C308.701875 103.41875 309.34125 103.2125 310 103 C310 102.01 310 101.02 310 100 C310.99 100 311.98 100 313 100 C313 99.34 313 98.68 313 98 C313.66 98 314.32 98 315 98 C315 97.01 315 96.02 315 95 C315.66 94.67 316.32 94.34 317 94 C317 92.68 317 91.36 317 90 C319.31 90.33 321.62 90.66 324 91 C324 90.34 324 89.68 324 89 C323.34 89 322.68 89 322 89 C322 88.01 322 87.02 322 86 C323.65 86 325.3 86 327 86 C327 85.34 327 84.68 327 84 C327.66 84 328.32 84 329 84 C328.67 82.35 328.34 80.7 328 79 C329.32 79 330.64 79 332 79 C332 78.34 332 77.68 332 77 C332.66 77 333.32 77 334 77 C333.67 75.68 333.34 74.36 333 73 C334.485 72.505 334.485 72.505 336 72 C336 71.34 336 70.68 336 70 C337.32 70 338.64 70 340 70 C340.33 67.69 340.66 65.38 341 63 C343.97 63 346.94 63 350 63 C350 60.03 350 57.06 350 54 C354.75 52.875 354.75 52.875 357 54 C357 53.34 357 52.68 357 52 C358.375 50.375 358.375 50.375 360 49 C360.66 49 361.32 49 362 49 C362 48.34 362 47.68 362 47 C362.66 47 363.32 47 364 47 C364 46.34 364 45.68 364 45 C364.61875 44.896875 365.2375 44.79375 365.875 44.6875 C368.36526484 44.12474627 368.36526484 44.12474627 370 41 C370 40.01 370 39.02 370 38 C370.99 38 371.98 38 373 38 C373.33 37.01 373.66 36.02 374 35 C375.32 35 376.64 35 378 35 C378 34.34 378 33.68 378 33 C378.66 33 379.32 33 380 33 C380 32.34 380 31.68 380 31 C381.98 31 383.96 31 386 31 C386 31.66 386 32.32 386 33 C386.99 33 387.98 33 389 33 C389 31.68 389 30.36 389 29 C391.97 28.01 391.97 28.01 395 27 C395 26.67 395 26.34 395 26 C397.475 25.505 397.475 25.505 400 25 C400 24.01 400 23.02 400 22 C400.99 22 401.98 22 403 22 C403 21.01 403 20.02 403 19 C405.31 19 407.62 19 410 19 C410 18.34 410 17.68 410 17 C413.3 17 416.6 17 420 17 C420 16.34 420 15.68 420 15 C420.99 15 421.98 15 423 15 C423 13.35 423 11.7 423 10 C426.66666667 10 430.33333333 10 434 10 C434.33 9.34 434.66 8.68 435 8 C436.32 8 437.64 8 439 8 C439 7.34 439 6.68 439 6 C440.14339844 5.95101562 441.28679688 5.90203125 442.46484375 5.8515625 C443.95575473 5.77654811 445.44663892 5.70099972 446.9375 5.625 C447.69224609 5.5940625 448.44699219 5.563125 449.22460938 5.53125 C451.15507395 5.4273685 453.07942081 5.22104386 455 5 C455.33 4.34 455.66 3.68 456 3 C458.875 2.875 458.875 2.875 462 3 C462.66 3.66 463.32 4.32 464 5 C464 4.34 464 3.68 464 3 C464.99 3 465.98 3 467 3 C467 2.34 467 1.68 467 1 C468.98 1 470.96 1 473 1 C473 1.66 473 2.32 473 3 C473.66 3 474.32 3 475 3 C475 2.34 475 1.68 475 1 C478.3 1 481.6 1 485 1 C485 1.66 485 2.32 485 3 C485.99 3 486.98 3 488 3 C488 2.34 488 1.68 488 1 C491.3 1 494.6 1 498 1 C498 1.66 498 2.32 498 3 C500.64 3 503.28 3 506 3 C506 2.34 506 1.68 506 1 C507.32 1 508.64 1 510 1 C510 1.66 510 2.32 510 3 C510.99 3 511.98 3 513 3 C513 2.34 513 1.68 513 1 C514.98 1 516.96 1 519 1 C519 1.66 519 2.32 519 3 C519.66 3 520.32 3 521 3 C521 2.34 521 1.68 521 1 C522.98 1 524.96 1 527 1 C527 2.65 527 4.3 527 6 C527.66 6 528.32 6 529 6 C529 5.01 529 4.02 529 3 C531.97 3 534.94 3 538 3 C538 3.99 538 4.98 538 6 C540.97 6 543.94 6 547 6 C547 6.66 547 7.32 547 8 C547.99 8 548.98 8 550 8 C550 8.66 550 9.32 550 10 C550.66 10 551.32 10 552 10 C552 9.34 552 8.68 552 8 C553.32 8 554.64 8 556 8 C556 8.66 556 9.32 556 10 C558.31 10 560.62 10 563 10 C563.33 10.99 563.66 11.98 564 13 C563.67 13.66 563.34 14.32 563 15 C563.825 14.62875 564.65 14.2575 565.5 13.875 C570.08490478 12.7287738 572.52934962 13.61255678 577 15 C577 15.66 577 16.32 577 17 C579.31 17 581.62 17 584 17 C584.33 17.66 584.66 18.32 585 19 C587.64 19 590.28 19 593 19 C593.33 21.97 593.66 24.94 594 28 C595.32 27.67 596.64 27.34 598 27 C598 26.67 598 26.34 598 26 C600.375 25.875 600.375 25.875 603 26 C605 28 605 28 605 31 C605.66 31 606.32 31 607 31 C607 31.66 607 32.32 607 33 C610.11578497 34.51068362 612.04954372 34.99913081 615.5625 34.9375 C619 35 619 35 621.4375 36.25 C623 38 623 38 623 42 C623.66 42 624.32 42 625 42 C625 42.99 625 43.98 625 45 C627.31 45 629.62 45 632 45 C632.33 45.66 632.66 46.32 633 47 C632.67 47.66 632.34 48.32 632 49 C633.65 49 635.3 49 637 49 C637 49.99 637 50.98 637 52 C637.66 52 638.32 52 639 52 C639 52.66 639 53.32 639 54 C639.66 54 640.32 54 641 54 C641 54.66 641 55.32 641 56 C642.65 56 644.3 56 646 56 C646 57.65 646 59.3 646 61 C646.99 61 647.98 61 649 61 C649.33 62.32 649.66 63.64 650 65 C650.99 65 651.98 65 653 65 C653 65.99 653 66.98 653 68 C654.65 68 656.3 68 658 68 C658 71.63 658 75.26 658 79 C658.928125 78.938125 659.85625 78.87625 660.8125 78.8125 C664 79 664 79 665.875 80.375 C667 82 667 82 667 84 C668.65 84 670.3 84 672 84 C672 86.31 672 88.62 672 91 C672.66 91 673.32 91 674 91 C674 93.31 674 95.62 674 98 C674.66 98 675.32 98 676 98 C676 98.66 676 99.32 676 100 C678.31 100 680.62 100 683 100 C683 102.31 683 104.62 683 107 C684.65 107 686.3 107 688 107 C688.1546875 107.8971875 688.1546875 107.8971875 688.3125 108.8125 C688.81455837 111.07184834 688.81455837 111.07184834 690.53125 112.34375 C692.48048601 114.54182464 692.31307966 115.79916776 692.1875 118.6875 C692.16042969 119.49574219 692.13335938 120.30398438 692.10546875 121.13671875 C692.05326172 122.05904297 692.05326172 122.05904297 692 123 C692.66 123 693.32 123 694 123 C694 123.66 694 124.32 694 125 C694.99 125 695.98 125 697 125 C697 128.96 697 132.92 697 137 C697.66 137 698.32 137 699 137 C700.6875 138.25 700.6875 138.25 702 140 C701.6875 142.1875 701.6875 142.1875 701 144 C702.65 144 704.3 144 706 144 C706 146.31 706 148.62 706 151 C706.66 151 707.32 151 708 151 C708 156.28 708 161.56 708 167 C708.99 167 709.98 167 711 167 C711 169.97 711 172.94 711 176 C711.66 176 712.32 176 713 176 C713 177.32 713 178.64 713 180 C713.66 180 714.32 180 715 180 C715 181.65 715 183.3 715 185 C715.99 185 716.98 185 718 185 C718 187.97 718 190.94 718 194 C717.01 194 716.02 194 715 194 C714.34 195.65 713.68 197.3 713 199 C713.66 199 714.32 199 715 199 C715 200.32 715 201.64 715 203 C715.99 203.33 716.98 203.66 718 204 C719.1194613 206.8914086 719.10768197 209.67762612 719.0625 212.75 C719.05347656 213.54921875 719.04445313 214.3484375 719.03515625 215.171875 C719.01775391 216.07679688 719.01775391 216.07679688 719 217 C718.34 217 717.68 217 717 217 C717.33 217.66 717.66 218.32 718 219 C718.07116382 221.37402501 718.08409085 223.75000677 718.0625 226.125 C718.05347656 227.40632813 718.04445313 228.68765625 718.03515625 230.0078125 C718.01775391 231.48894531 718.01775391 231.48894531 718 233 C717.34 233.33 716.68 233.66 716 234 C716.66 234.33 717.32 234.66 718 235 C718 237.31 718 239.62 718 242 C717.01 242.33 716.02 242.66 715 243 C715 248.28 715 253.56 715 259 C714.01 259.495 714.01 259.495 713 260 C713.66 260.33 714.32 260.66 715 261 C715 263.31 715 265.62 715 268 C714.01 268.495 714.01 268.495 713 269 C713 269.99 713 270.98 713 272 C712.34 272.66 711.68 273.32 711 274 C711 274.99 711 275.98 711 277 C710.01 277 709.02 277 708 277 C708.185625 278.299375 708.37125 279.59875 708.5625 280.9375 C709.11884037 285.80547826 708.69149428 290.15954005 708 295 C707.01 295.33 706.02 295.66 705 296 C705.33 296.33 705.66 296.66 706 297 C706.14115161 299.67058851 706.04247107 302.32432238 706 305 C705.01 305 704.02 305 703 305 C703 305.66 703 306.32 703 307 C702.34 307 701.68 307 701 307 C701.33 307.66 701.66 308.32 702 309 C702.04022391 311.3329866 702.04320247 313.66706666 702 316 C700.02 316 698.04 316 696 316 C696.33 318.31 696.66 320.62 697 323 C696.01 323 695.02 323 694 323 C694 323.66 694 324.32 694 325 C692.68 325 691.36 325 690 325 C690 327.64 690 330.28 690 333 C689.34 333 688.68 333 688 333 C687.67 334.32 687.34 335.64 687 337 C686.34 337 685.68 337 685 337 C684.15545644 340.37817425 683.89155081 342.67465243 685 346 C682.69 346 680.38 346 678 346 C678.33 347.32 678.66 348.64 679 350 C678.01 350.33 677.02 350.66 676 351 C676 351.66 676 352.32 676 353 C675.34 353 674.68 353 674 353 C674 354.65 674 356.3 674 358 C673.360625 358.2475 672.72125 358.495 672.0625 358.75 C669.81258459 359.81562433 669.81258459 359.81562433 669.25 362.125 C669.12625 363.053125 669.12625 363.053125 669 364 C668.34 364 667.68 364 667 364 C667 364.99 667 365.98 667 367 C666.01 367 665.02 367 664 367 C663.84188612 370.05270463 663.84188612 370.05270463 665 373 C664 374 664 374 660.9375 374.0625 C659.968125 374.041875 658.99875 374.02125 658 374 C658 374.66 658 375.32 658 376 C656.35 376 654.7 376 653 376 C653.12375 377.1446875 653.12375 377.1446875 653.25 378.3125 C653.12625 379.6428125 653.12625 379.6428125 653 381 C651 382.625 651 382.625 649 384 C649 384.99 649 385.98 649 387 C647.68 387.66 646.36 388.32 645 389 C645.33 389.99 645.66 390.98 646 392 C644.68 392.66 643.36 393.32 642 394 C641.01 393.34 640.02 392.68 639 392 C639 392.66 639 393.32 639 394 C637.68 394 636.36 394 635 394 C635 395.65 635 397.3 635 399 C633.35 399 631.7 399 630 399 C630 399.66 630 400.32 630 401 C628.35 401 626.7 401 625 401 C625 401.99 625 402.98 625 404 C623.68 404 622.36 404 621 404 C621 405.32 621 406.64 621 408 C619.35 408.33 617.7 408.66 616 409 C616 410.32 616 411.64 616 413 C614.35 413 612.7 413 611 413 C611 413.66 611 414.32 611 415 C610.34 415 609.68 415 609 415 C609 415.66 609 416.32 609 417 C608.34 417 607.68 417 607 417 C607 417.99 607 418.98 607 420 C605.02 420 603.04 420 601 420 C600.67 421.32 600.34 422.64 600 424 C599.21753906 424.04898437 598.43507813 424.09796875 597.62890625 424.1484375 C596.61699219 424.22320313 595.60507813 424.29796875 594.5625 424.375 C593.55316406 424.44460938 592.54382812 424.51421875 591.50390625 424.5859375 C590.67761719 424.72257812 589.85132813 424.85921875 589 425 C588.67 425.66 588.34 426.32 588 427 C586.68 427 585.36 427 584 427 C584 427.66 584 428.32 584 429 C581.03 429 578.06 429 575 429 C575 429.66 575 430.32 575 431 C573.35 431 571.7 431 570 431 C569.67 431.99 569.34 432.98 569 434 C567.02 434 565.04 434 563 434 C563 435.32 563 436.64 563 438 C560 440 560 440 556.875 440.5 C555.92625 440.665 554.9775 440.83 554 441 C553.67 441.66 553.34 442.32 553 443 C550 442 550 442 547 440 C547 440.99 547 441.98 547 443 C546.34 443 545.68 443 545 443 C545 443.66 545 444.32 545 445 C543.68 445 542.36 445 541 445 C541 443.35 541 441.7 541 440 C538.69 440.66 536.38 441.32 534 442 C534 442.33 534 442.66 534 443 C532.35 443 530.7 443 529 443 C529 442.34 529 441.68 529 441 C528.01 441.495 528.01 441.495 527 442 C527 442.99 527 443.98 527 445 C523.37 445 519.74 445 516 445 C516 444.34 516 443.68 516 443 C511.38 443 506.76 443 502 443 C501.67 443.66 501.34 444.32 501 445 C500.01 445 499.02 445 498 445 C498 444.34 498 443.68 498 443 C497.01 443 496.02 443 495 443 C495 443.66 495 444.32 495 445 C492.03 445 489.06 445 486 445 C486 444.34 486 443.68 486 443 C485.34 443 484.68 443 484 443 C484 443.66 484 444.32 484 445 C480.04 445 476.08 445 472 445 C472 444.34 472 443.68 472 443 C469.03 443 466.06 443 463 443 C462.67 442.34 462.34 441.68 462 441 C458.97065509 440.34227572 458.97065509 440.34227572 456 440 C456 439.34 456 438.68 456 438 C453.36 438 450.72 438 448 438 C448 438.66 448 439.32 448 440 C445.03 440 442.06 440 439 440 C439 439.01 439 438.02 439 437 C436.03 436.67 433.06 436.34 430 436 C430 435.67 430 435.34 430 435 C429.030625 434.87625 428.06125 434.7525 427.0625 434.625 C425.5465625 434.315625 425.5465625 434.315625 424 434 C423.67 433.34 423.34 432.68 423 432 C420.87423218 431.53348793 420.87423218 431.53348793 418.4375 431.375 C417.61121094 431.30023437 416.78492188 431.22546875 415.93359375 431.1484375 C415.29550781 431.09945313 414.65742187 431.05046875 414 431 C414 430.34 414 429.68 414 429 C412.68 429 411.36 429 410 429 C410 428.34 410 427.68 410 427 C409.01 426.67 408.02 426.34 407 426 C405.65909241 425.34870203 404.32407669 424.68486725 403 424 C403 423.34 403 422.68 403 422 C402.34 422 401.68 422 401 422 C401 421.34 401 420.68 401 420 C400.38511719 420.03480469 399.77023437 420.06960938 399.13671875 420.10546875 C398.32847656 420.13253906 397.52023437 420.15960937 396.6875 420.1875 C395.88699219 420.22230469 395.08648438 420.25710938 394.26171875 420.29296875 C392 420 392 420 390.20703125 418.61328125 C389 417 389 417 389 415 C387.68 415.66 386.36 416.32 385 417 C384.67 415.68 384.34 414.36 384 413 C382.5459375 413.0309375 382.5459375 413.0309375 381.0625 413.0625 C378 413 378 413 377 412 C376.95919217 410.00041636 376.95745644 407.99954746 377 406 C374.69 406 372.38 406 370 406 C370 404.68 370 403.36 370 402 C369.34 401.67 368.68 401.34 368 401 C368 399.68 368 398.36 368 397 C366.68 397 365.36 397 364 397 C363.773125 396.360625 363.54625 395.72125 363.3125 395.0625 C362.14749104 392.72806339 362.14749104 392.72806339 359.375 392.25 C358.59125 392.1675 357.8075 392.085 357 392 C357 391.34 357 390.68 357 390 C354.69 390 352.38 390 350 390 C350 388.35 350 386.7 350 385 C348.68 385 347.36 385 346 385 C346 384.34 346 383.68 346 383 C345.01 383 344.02 383 343 383 C343 382.34 343 381.68 343 381 C342.01 380.67 341.02 380.34 340 380 C340.33 378.68 340.66 377.36 341 376 C340.34 376 339.68 376 339 376 C339 375.34 339 374.68 339 374 C337.68 374 336.36 374 335 374 C332.75 372.1875 332.75 372.1875 331 370 C331 369.01 331 368.02 331 367 C330.34 367 329.68 367 329 367 C329 366.01 329 365.02 329 364 C328.34 364 327.68 364 327 364 C327 363.34 327 362.68 327 362 C326.01 362 325.02 362 324 362 C324 360.68 324 359.36 324 358 C323.34 358 322.68 358 322 358 C322 357.01 322 356.02 322 355 C321.34 355 320.68 355 320 355 C320 354.34 320 353.68 320 353 C319.01 353 318.02 353 317 353 C317.33 351.35 317.66 349.7 318 348 C317.01 348 316.02 348 315 348 C314.67 347.34 314.34 346.68 314 346 C311.97536745 345.34786708 311.97536745 345.34786708 310 345 C310.33 343.02 310.66 341.04 311 339 C310.34 339 309.68 339 309 339 C309 339.66 309 340.32 309 341 C308.01 341 307.02 341 306 341 C305.67 339.02 305.34 337.04 305 335 C303.68 334.67 302.36 334.34 301 334 C301 332.68 301 331.36 301 330 C300.34 330 299.68 330 299 330 C299 328.35 299 326.7 299 325 C297.68 325 296.36 325 295 325 C295 324.34 295 323.68 295 323 C293.35 323 291.7 323 290 323 C290 320.69 290 318.38 290 316 C290.66 316 291.32 316 292 316 C292 315.34 292 314.68 292 314 C290.68 314 289.36 314 288 314 C288 313.34 288 312.68 288 312 C287.34 311.67 286.68 311.34 286 311 C285.01 310.34 284.02 309.68 283 309 C283 308.34 283 307.68 283 307 C282.34 307 281.68 307 281 307 C281 306.34 281 305.68 281 305 C280.01 305 279.02 305 278 305 C278 304.01 278 303.02 278 302 C277.34 302 276.68 302 276 302 C276 299.03 276 296.06 276 293 C273.69 293 271.38 293 269 293 C269 291.68 269 290.36 269 289 C267.35 288.67 265.7 288.34 264 288 C264.33 286.68 264.66 285.36 265 284 C264.01 284 263.02 284 262 284 C262 283.34 262 282.68 262 282 C261.34 282 260.68 282 260 282 C260 280.35 260 278.7 260 277 C259.34 277 258.68 277 258 277 C258 274.69 258 272.38 258 270 C256.35 270 254.7 270 253 270 C251.5393715 267.35261084 251 266.10551666 251 263 C250.34 263 249.68 263 249 263 C249 263.99 249 264.98 249 266 C247.35 266 245.7 266 244 266 C244 265.01 244 264.02 244 263 C243.01 263 242.02 263 241 263 C241 262.34 241 261.68 241 261 C240.34 261 239.68 261 239 261 C239 263.31 239 265.62 239 268 C236.69 268 234.38 268 232 268 C232.02320313 269.27617188 232.04640625 270.55234375 232.0703125 271.8671875 C232.08906829 273.5364525 232.10726869 275.2057238 232.125 276.875 C232.14175781 277.71675781 232.15851563 278.55851562 232.17578125 279.42578125 C232.18222656 280.23144531 232.18867187 281.03710938 232.1953125 281.8671875 C232.20578613 282.61081543 232.21625977 283.35444336 232.22705078 284.12060547 C232 286 232 286 230 288 C229.75712511 290.44012949 229.75712511 290.44012949 229.875 293.125 C229.89304687 294.03507812 229.91109375 294.94515625 229.9296875 295.8828125 C229.95289063 296.58148437 229.97609375 297.28015625 230 298 C229.34 298.33 228.68 298.66 228 299 C228 299.99 228 300.98 228 302 C226.35 302 224.7 302 223 302 C223 304.31 223 306.62 223 309 C222.34 309 221.68 309 221 309 C221 311.97 221 314.94 221 318 C219.35 318 217.7 318 216 318 C216 322.62 216 327.24 216 332 C214.68 332.33 213.36 332.66 212 333 C211.67 333.66 211.34 334.32 211 335 C210.34 335 209.68 335 209 335 C209 336.32 209 337.64 209 339 C208.34 339 207.68 339 207 339 C207 341.31 207 343.62 207 346 C205.35 346 203.7 346 202 346 C202 347.65 202 349.3 202 351 C201.34 351 200.68 351 200 351 C200 352.32 200 353.64 200 355 C198.625 356.75 198.625 356.75 197 358 C196.34 358 195.68 358 195 358 C195 358.66 195 359.32 195 360 C194.34 360 193.68 360 193 360 C193 360.99 193 361.98 193 363 C191.35 363.33 189.7 363.66 188 364 C188 364.99 188 365.98 188 367 C186.68 367 185.36 367 184 367 C184.33 368.32 184.66 369.64 185 371 C183.02 371 181.04 371 179 371 C179 372.65 179 374.3 179 376 C178.34 376 177.68 376 177 376 C177 378.31 177 380.62 177 383 C174.69 383 172.38 383 170 383 C170 383.66 170 384.32 170 385 C169.34 385 168.68 385 168 385 C168 387.31 168 389.62 168 392 C165.36 392 162.72 392 160 392 C159.67 394.31 159.34 396.62 159 399 C155.38026598 400.31626692 152.90432869 401 149 401 C149 402.65 149 404.3 149 406 C146.03 406 143.06 406 140 406 C140 406.66 140 407.32 140 408 C139.34 408 138.68 408 138 408 C138 408.66 138 409.32 138 410 C138.66 410 139.32 410 140 410 C139.67 410.99 139.34 411.98 139 413 C136.03 413 133.06 413 130 413 C130 413.66 130 414.32 130 415 C127.36 415 124.72 415 122 415 C122 416.65 122 418.3 122 420 C120.35 420 118.7 420 117 420 C117 420.66 117 421.32 117 422 C115.68 422 114.36 422 113 422 C113 422.66 113 423.32 113 424 C112.01 424 111.02 424 110 424 C110 424.99 110 425.98 110 427 C106.37 427 102.74 427 99 427 C99 428.32 99 429.64 99 431 C97.35 431 95.7 431 94 431 C93.67 431.99 93.34 432.98 93 434 C91.68 434 90.36 434 89 434 C89 434.66 89 435.32 89 436 C86.69 436 84.38 436 82 436 C82 436.66 82 437.32 82 438 C80.02 438 78.04 438 76 438 C76 437.34 76 436.68 76 436 C75.34 436 74.68 436 74 436 C74 436.66 74 437.32 74 438 C71.94921875 438.22786458 69.8984375 438.45572917 67.84765625 438.68359375 C65.98859771 438.81886614 65.98859771 438.81886614 65 440 C63.31391034 440.07205511 61.62499341 440.08386068 59.9375 440.0625 C59.01839844 440.05347656 58.09929687 440.04445313 57.15234375 440.03515625 C56.44207031 440.02355469 55.73179687 440.01195312 55 440 C55 441.65 55 443.3 55 445 C52.03 445 49.06 445 46 445 C46 444.34 46 443.68 46 443 C43.69 443 41.38 443 39 443 C39 443.66 39 444.32 39 445 C39.66 445.33 40.32 445.66 41 446 C33.74 445.67 26.48 445.34 19 445 C19 444.34 19 443.68 19 443 C18.34 443 17.68 443 17 443 C17 443.66 17 444.32 17 445 C9.41 445 1.82 445 -6 445 C-6 444.34 -6 443.68 -6 443 C-12.27 443 -18.54 443 -25 443 C-25 442.01 -25 441.02 -25 440 C-27.31 440 -29.62 440 -32 440 C-32 439.34 -32 438.68 -32 438 C-32.99 438 -33.98 438 -35 438 C-35 438.66 -35 439.32 -35 440 C-36.98 440 -38.96 440 -41 440 C-41 439.34 -41 438.68 -41 438 C-42.65 438 -44.3 438 -46 438 C-46 437.34 -46 436.68 -46 436 C-48.97 436 -51.94 436 -55 436 C-55 434.68 -55 433.36 -55 432 C-56.65 431.67 -58.3 431.34 -60 431 C-60.33 429.68 -60.66 428.36 -61 427 C-61.66 427 -62.32 427 -63 427 C-63 427.66 -63 428.32 -63 429 C-64.98 429 -66.96 429 -69 429 C-69 428.34 -69 427.68 -69 427 C-70.65 427 -72.3 427 -74 427 C-74 425.35 -74 423.7 -74 422 C-78.29 422 -82.58 422 -87 422 C-88 417 -88 417 -87 415 C-87.66 415 -88.32 415 -89 415 C-89 415.66 -89 416.32 -89 417 C-89.99 417 -90.98 417 -92 417 C-92 416.34 -92 415.68 -92 415 C-93.3303125 415.061875 -93.3303125 415.061875 -94.6875 415.125 C-98.75718229 414.97142708 -101.44365989 414.11167151 -104.75 411.75 C-106.50291148 409.29592392 -106.67163788 406.95525904 -107 404 C-107.99 404 -108.98 404 -110 404 C-110 403.01 -110 402.02 -110 401 C-110.99 401 -111.98 401 -113 401 C-113 400.34 -113 399.68 -113 399 C-115.31 399 -117.62 399 -120 399 C-120 396.69 -120 394.38 -120 392 C-121.98 392 -123.96 392 -126 392 C-126 391.34 -126 390.68 -126 390 C-126.99 390 -127.98 390 -129 390 C-129 388.35 -129 386.7 -129 385 C-129.99 385 -130.98 385 -132 385 C-132 384.34 -132 383.68 -132 383 C-134.64 383 -137.28 383 -140 383 C-141.125 378.25 -141.125 378.25 -140 376 C-140.99 376 -141.98 376 -143 376 C-143 375.34 -143 374.68 -143 374 C-144.32 374 -145.64 374 -147 374 C-147 371.69 -147 369.38 -147 367 C-148.65 367 -150.3 367 -152 367 C-151.979375 366.071875 -151.95875 365.14375 -151.9375 364.1875 C-151.84230396 360.97713989 -151.84230396 360.97713989 -153 358 C-155.31 358 -157.62 358 -160 358 C-160.33 357.34 -160.66 356.68 -161 356 C-161.845625 355.690625 -162.69125 355.38125 -163.5625 355.0625 C-166 353 -166 353 -166.328125 350.359375 C-166.31376044 347.55828662 -166.21335813 344.7926208 -166 342 C-166.66 341.67 -167.32 341.34 -168 341 C-168 340.67 -168 340.34 -168 340 C-170.31 339.67 -172.62 339.34 -175 339 C-176.25330538 336.25839448 -177.00825236 334.35485135 -176.9375 331.3125 C-176.958125 330.549375 -176.97875 329.78625 -177 329 C-177.99 328.34 -178.98 327.68 -180 327 C-180.1875 324.375 -180.1875 324.375 -180 322 C-180.66 321.67 -181.32 321.34 -182 321 C-182.12375 320.360625 -182.2475 319.72125 -182.375 319.0625 C-182.80939427 316.80148727 -182.80939427 316.80148727 -185.0625 315.75 C-186.0215625 315.37875 -186.0215625 315.37875 -187 315 C-187.07523214 312.36687508 -187.017639 310.07839554 -186.4375 307.5 C-185.94777818 304.70158962 -186.40535358 302.75023969 -187 300 C-186.67 299.34 -186.34 298.68 -186 298 C-186.99 298 -187.98 298 -189 298 C-189 296.35 -189 294.7 -189 293 C-189.66 293 -190.32 293 -191 293 C-191.268125 292.030625 -191.53625 291.06125 -191.8125 290.0625 C-192.4003125 288.5465625 -192.4003125 288.5465625 -193 287 C-193.99 286.67 -194.98 286.34 -196 286 C-196 279.73 -196 273.46 -196 267 C-198.31 266.34 -200.62 265.68 -203 265 C-203 263.68 -203 262.36 -203 261 C-202.01 261 -201.02 261 -200 261 C-200 258.69 -200 256.38 -200 254 C-200.99 254 -201.98 254 -203 254 C-203 250.37 -203 246.74 -203 243 C-202.01 243 -201.02 243 -200 243 C-200 239.7 -200 236.4 -200 233 C-200.99 233 -201.98 233 -203 233 C-204.0161692 228.37078475 -203.83796731 224.65537393 -203 220 C-202.01 220 -201.02 220 -200 220 C-200 214.39 -200 208.78 -200 203 C-200.99 203 -201.98 203 -203 203 C-203 198.71 -203 194.42 -203 190 C-202.01 190 -201.02 190 -200 190 C-200 185.38 -200 180.76 -200 176 C-198.68 176 -197.36 176 -196 176 C-196 173.03 -196 170.06 -196 167 C-196.66 167 -197.32 167 -198 167 C-198 165.35 -198 163.7 -198 162 C-197.01 162 -196.02 162 -195 162 C-195 161.34 -195 160.68 -195 160 C-193.68 160 -192.36 160 -191 160 C-191 154.72 -191 149.44 -191 144 C-190.34 144 -189.68 144 -189 144 C-189 142.35 -189 140.7 -189 139 C-188.01 139 -187.02 139 -186 139 C-185.89042969 138.37351562 -185.78085937 137.74703125 -185.66796875 137.1015625 C-185.50941406 136.28429688 -185.35085938 135.46703125 -185.1875 134.625 C-185.03667969 133.81289062 -184.88585937 133.00078125 -184.73046875 132.1640625 C-184 130 -184 130 -181 128 C-180.27034634 125.43717258 -180.27034634 125.43717258 -180 123 C-178.35 123 -176.7 123 -175 123 C-175 118.38 -175 113.76 -175 109 C-172.525 108.01 -172.525 108.01 -170 107 C-169.17295995 104.53176909 -169.17295995 104.53176909 -169 102 C-168.67 101.34 -168.34 100.68 -168 100 C-167.34 100 -166.68 100 -166 100 C-166 98.35 -166 96.7 -166 95 C-164.68 95 -163.36 95 -162 95 C-161.67 95.33 -161.34 95.66 -161 96 C-160.34 95.67 -159.68 95.34 -159 95 C-159 92.69 -159 90.38 -159 88 C-158.01 88 -157.02 88 -156 88 C-156 87.34 -156 86.68 -156 86 C-155.34 86 -154.68 86 -154 86 C-154 84.68 -154 83.36 -154 82 C-152.625 80.25 -152.625 80.25 -151 79 C-150.34 79 -149.68 79 -149 79 C-149 78.34 -149 77.68 -149 77 C-147.68 77 -146.36 77 -145 77 C-145 74.69 -145 72.38 -145 70 C-143.68 70 -142.36 70 -141 70 C-141 69.34 -141 68.68 -141 68 C-140.01 68 -139.02 68 -138 68 C-138 67.01 -138 66.02 -138 65 C-137.34 65 -136.68 65 -136 65 C-136 64.34 -136 63.68 -136 63 C-134.68 63 -133.36 63 -132 63 C-132 62.34 -132 61.68 -132 61 C-131.01 60.67 -130.02 60.34 -129 60 C-129 58.68 -129 57.36 -129 56 C-128.01 56 -127.02 56 -126 56 C-126 55.34 -126 54.68 -126 54 C-123.03 53.34 -120.06 52.68 -117 52 C-117.495 50.02 -117.495 50.02 -118 48 C-116.35 47.67 -114.7 47.34 -113 47 C-112.67 45.35 -112.34 43.7 -112 42 C-110.68 41.67 -109.36 41.34 -108 41 C-108 40.01 -108 39.02 -108 38 C-107.34 38 -106.68 38 -106 38 C-106 37.34 -106 36.68 -106 36 C-102.535 35.505 -102.535 35.505 -99 35 C-99 34.34 -99 33.68 -99 33 C-96 31 -96 31 -93 31 C-93 31.66 -93 32.32 -93 33 C-92.01 33 -91.02 33 -90 33 C-90 32.34 -90 31.68 -90 31 C-88.02 30.34 -86.04 29.68 -84 29 C-83.67 27.35 -83.34 25.7 -83 24 C-82.01 24 -81.02 24 -80 24 C-80 23.34 -80 22.68 -80 22 C-78.68 22 -77.36 22 -76 22 C-76 21.01 -76 20.02 -76 19 C-72.04 19 -68.08 19 -64 19 C-64 18.34 -64 17.68 -64 17 C-63.34 17 -62.68 17 -62 17 C-62 16.34 -62 15.68 -62 15 C-59.03 15 -56.06 15 -53 15 C-52.67 14.01 -52.34 13.02 -52 12 C-50.68 12 -49.36 12 -48 12 C-48 11.34 -48 10.68 -48 10 C-47.01 10 -46.02 10 -45 10 C-45 9.34 -45 8.68 -45 8 C-44.01 8 -43.02 8 -42 8 C-42 8.66 -42 9.32 -42 10 C-41.34 10 -40.68 10 -40 10 C-39.67 9.34 -39.34 8.68 -39 8 C-37.35 8 -35.7 8 -34 8 C-34 7.34 -34 6.68 -34 6 C-33.48953125 6.15339844 -32.9790625 6.30679688 -32.453125 6.46484375 C-29.2250662 7.16905403 -26.04581999 7.34888204 -22.75 7.5625 C-20.85507813 7.68818359 -20.85507813 7.68818359 -18.921875 7.81640625 C-17.95765625 7.87699219 -16.9934375 7.93757812 -16 8 C-16 7.34 -16 6.68 -16 6 C-13.03 6 -10.06 6 -7 6 C-7 4.35 -7 2.7 -7 1 C-5.68 1 -4.36 1 -3 1 C-3 1.66 -3 2.32 -3 3 C-2.01 3 -1.02 3 0 3 C0 2.01 0 1.02 0 0 Z M371 42 C371 42.66 371 43.32 371 44 C371.66 44 372.32 44 373 44 C373 43.34 373 42.68 373 42 C372.34 42 371.68 42 371 42 Z M487 63 C487 63.66 487 64.32 487 65 C485.02 65 483.04 65 481 65 C480.67 65.99 480.34 66.98 480 68 C477.03 68 474.06 68 471 68 C471 68.66 471 69.32 471 70 C468.03 70 465.06 70 462 70 C462 70.66 462 71.32 462 72 C459.03 72 456.06 72 453 72 C452.67 72.66 452.34 73.32 452 74 C448.9375 74.625 448.9375 74.625 446 75 C446 75.66 446 76.32 446 77 C443.36 77 440.72 77 438 77 C438 77.66 438 78.32 438 79 C436.02 78.34 434.04 77.68 432 77 C431.67 77.99 431.34 78.98 431 80 C428.9375 81.1875 428.9375 81.1875 427 82 C427 82.66 427 83.32 427 84 C424.69 84 422.38 84 420 84 C420 84.66 420 85.32 420 86 C419.01 86 418.02 86 417 86 C416.505 85.01 416.505 85.01 416 84 C416 86.31 416 88.62 416 91 C414.02 91 412.04 91 410 91 C410 91.66 410 92.32 410 93 C408.68 93 407.36 93 406 93 C406 93.66 406 94.32 406 95 C404.02 95 402.04 95 400 95 C400 95.99 400 96.98 400 98 C399.34 98 398.68 98 398 98 C398 98.66 398 99.32 398 100 C397.01 100.33 396.02 100.66 395 101 C395.99 101.33 396.98 101.66 398 102 C398 102.66 398 103.32 398 104 C397.01 104.33 396.02 104.66 395 105 C395 105.66 395 106.32 395 107 C394.34 107 393.68 107 393 107 C393 107.66 393 108.32 393 109 C390.03 109 387.06 109 384 109 C384 110.65 384 112.3 384 114 C383.01 114.33 382.02 114.66 381 115 C381.495 119.95 381.495 119.95 382 125 C379.36 125 376.72 125 374 125 C373.34 126.65 372.68 128.3 372 130 C371.34 130 370.68 130 370 130 C370 132.31 370 134.62 370 137 C368.35 137 366.7 137 365 137 C365 138.98 365 140.96 365 143 C364.01 143.495 364.01 143.495 363 144 C363 144.66 363 145.32 363 146 C362.34 146 361.68 146 361 146 C361 146.66 361 147.32 361 148 C359.515 148.495 359.515 148.495 358 149 C358 149.66 358 150.32 358 151 C357.34 151 356.68 151 356 151 C356 153.97 356 156.94 356 160 C355.34 160 354.68 160 354 160 C351.67409146 163.63423209 351.83734167 166.77088331 352 171 C351.01 171 350.02 171 349 171 C349 172.32 349 173.64 349 175 C348.01 175.495 348.01 175.495 347 176 C347 176.66 347 177.32 347 178 C347.66 178 348.32 178 349 178 C349 179.65 349 181.3 349 183 C348.34 183 347.68 183 347 183 C347 184.32 347 185.64 347 187 C345.35 187 343.7 187 342 187 C342.33 191.62 342.66 196.24 343 201 C342.34 201 341.68 201 341 201 C341 201.66 341 202.32 341 203 C342.32 203 343.64 203 345 203 C345 207.62 345 212.24 345 217 C344.34 217 343.68 217 343 217 C343 218.65 343 220.3 343 222 C341.35 222 339.7 222 338 222 C337.67 222.99 337.34 223.98 337 225 C337.99 225.66 338.98 226.32 340 227 C341.92257897 230.035651 342 231.21850924 342 235 C341.34 235.33 340.68 235.66 340 236 C340 236.66 340 237.32 340 238 C340.99 238 341.98 238 343 238 C343 239.32 343 240.64 343 242 C342.34 242.33 341.68 242.66 341 243 C341.474375 243.99 341.94875 244.98 342.4375 246 C344.16813748 249.99189495 344.62115314 253.68114582 345 258 C344.34 258.33 343.68 258.66 343 259 C343.66 259 344.32 259 345 259 C345 261.31 345 263.62 345 266 C346.32 266.66 347.64 267.32 349 268 C349 268.66 349 269.32 349 270 C349.99 270 350.98 270 352 270 C352 273.96 352 277.92 352 282 C351.01 282 350.02 282 349 282 C349 282.66 349 283.32 349 284 C349.99 284 350.98 284 352 284 C352 285.65 352 287.3 352 289 C353.32 289 354.64 289 356 289 C356 290.98 356 292.96 356 295 C356.66 295 357.32 295 358 295 C358.33 295.99 358.66 296.98 359 298 C359.66 298 360.32 298 361 298 C361 298.66 361 299.32 361 300 C361.66 300 362.32 300 363 300 C363 301.32 363 302.64 363 304 C362.34 304.33 361.68 304.66 361 305 C363.31 305 365.62 305 368 305 C368 306.32 368 307.64 368 309 C368.66 309 369.32 309 370 309 C370 311.31 370 313.62 370 316 C371.65 316 373.3 316 375 316 C375 317.32 375 318.64 375 320 C374.01 320.33 373.02 320.66 372 321 C373.65 321.66 375.3 322.32 377 323 C377 323.66 377 324.32 377 325 C377.66 325 378.32 325 379 325 C379 325.99 379 326.98 379 328 C379.66 328 380.32 328 381 328 C381 328.66 381 329.32 381 330 C381.99 330 382.98 330 384 330 C384 330.66 384 331.32 384 332 C384.66 332 385.32 332 386 332 C386 332.99 386 333.98 386 335 C388.31 335.66 390.62 336.32 393 337 C393 337.66 393 338.32 393 339 C393.66 339 394.32 339 395 339 C395.495 340.485 395.495 340.485 396 342 C396.66 342 397.32 342 398 342 C398.33 343.32 398.66 344.64 399 346 C400.98 346 402.96 346 405 346 C405 346.66 405 347.32 405 348 C406.32 348 407.64 348 409 348 C409 348.99 409 349.98 409 351 C410.2065625 351.433125 410.2065625 351.433125 411.4375 351.875 C414 353 414 353 415 355 C416.65 355 418.3 355 420 355 C420.495 356.485 420.495 356.485 421 358 C421.66 358 422.32 358 423 358 C423 359.32 423 360.64 423 362 C424.60875 362.7425 424.60875 362.7425 426.25 363.5 C427.15492188 363.91765625 427.15492188 363.91765625 428.078125 364.34375 C430.29242836 365.21542924 430.29242836 365.21542924 434 365 C434 365.66 434 366.32 434 367 C434.99 367 435.98 367 437 367 C437 367.66 437 368.32 437 369 C439.64 369 442.28 369 445 369 C445 369.66 445 370.32 445 371 C447.31 371.33 449.62 371.66 452 372 C452.33 373.98 452.66 375.96 453 378 C453.66 378 454.32 378 455 378 C455.33 376.68 455.66 375.36 456 374 C458.64 374 461.28 374 464 374 C464 374.66 464 375.32 464 376 C466.31 376 468.62 376 471 376 C471 376.66 471 377.32 471 378 C472.93736701 378.16820551 474.87489906 378.33451095 476.8125 378.5 C477.89144531 378.5928125 478.97039062 378.685625 480.08203125 378.78125 C483.01090811 379.03737838 483.01090811 379.03737838 486 379 C489 379 492 379 495 379 C495.33 379.66 495.66 380.32 496 381 C498.64 381 501.28 381 504 381 C504.33 380.01 504.66 379.02 505 378 C507.64 378 510.28 378 513 378 C513 378.99 513 379.98 513 381 C514.65 381 516.3 381 518 381 C518.33 380.34 518.66 379.68 519 379 C521.0625 378.375 521.0625 378.375 523 378 C523 377.34 523 376.68 523 376 C525.64 376 528.28 376 531 376 C531 376.66 531 377.32 531 378 C533.31 378 535.62 378 538 378 C538 376.68 538 375.36 538 374 C538.99 374 539.98 374 541 374 C541 373.01 541 372.02 541 371 C542.98 371 544.96 371 547 371 C547 370.34 547 369.68 547 369 C548.65 369 550.3 369 552 369 C552 368.34 552 367.68 552 367 C553.98 367 555.96 367 558 367 C558.33 367.66 558.66 368.32 559 369 C559 368.34 559 367.68 559 367 C560.65 367 562.3 367 564 367 C564 366.34 564 365.68 564 365 C564.66 365 565.32 365 566 365 C566 364.01 566 363.02 566 362 C568.97 362 571.94 362 575 362 C575 360.68 575 359.36 575 358 C577.31 358 579.62 358 582 358 C582 356.35 582 354.7 582 353 C582.99 353 583.98 353 585 353 C585 352.34 585 351.68 585 351 C586.65 350.67 588.3 350.34 590 350 C590 349.67 590 349.34 590 349 C591.98 348.67 593.96 348.34 596 348 C596 346.02 596 344.04 596 342 C598.31 342 600.62 342 603 342 C604.33332095 339.3333581 603.67102033 337.83319697 603 335 C603.66 335 604.32 335 605 335 C605 334.01 605 333.02 605 332 C605.99 332 606.98 332 608 332 C608 331.34 608 330.68 608 330 C609.32 330 610.64 330 612 330 C612 329.34 612 328.68 612 328 C614.31 328 616.62 328 619 328 C619 326.35 619 324.7 619 323 C619.66 323 620.32 323 621 323 C621.12375 322.360625 621.2475 321.72125 621.375 321.0625 C621.684375 320.0415625 621.684375 320.0415625 622 319 C622.66 318.67 623.32 318.34 624 318 C624 316.02 624 314.04 624 312 C624.66 311.67 625.32 311.34 626 311 C626 309.68 626 308.36 626 307 C626.639375 306.731875 627.27875 306.46375 627.9375 306.1875 C630.33131686 305.11332248 630.33131686 305.11332248 631 302 C632.32 302 633.64 302 635 302 C636.45184478 297.46298506 637.23509196 293.81938524 637 289 C637.99 289 638.98 289 640 289 C640 288.01 640 287.02 640 286 C640.66 286 641.32 286 642 286 C642 285.34 642 284.68 642 284 C642.99 284 643.98 284 645 284 C645.33 283.01 645.66 282.02 646 281 C645.34 281 644.68 281 644 281 C644 279.02 644 277.04 644 275 C644.66 275 645.32 275 646 275 C646 273.35 646 271.7 646 270 C646.99 270 647.98 270 649 270 C649 267.03 649 264.06 649 261 C650.32 260.67 651.64 260.34 653 260 C652.34 259.67 651.68 259.34 651 259 C651 255.7 651 252.4 651 249 C651.66 249 652.32 249 653 249 C653 246.69 653 244.38 653 242 C653.99 242 654.98 242 656 242 C656 241.34 656 240.68 656 240 C655.01 240 654.02 240 653 240 C653 238.68 653 237.36 653 236 C653.99 236 654.98 236 656 236 C656 234.35 656 232.7 656 231 C655.01 231 654.02 231 653 231 C653 224.07 653 217.14 653 210 C653.66 209.67 654.32 209.34 655 209 C653.68 208.67 652.36 208.34 651 208 C651.57344937 205.13275314 651.8614515 204.1385485 654 202 C653.67 201.01 653.34 200.02 653 199 C652.34 199 651.68 199 651 199 C651 197.02 651 195.04 651 193 C651.66 192.67 652.32 192.34 653 192 C652.01 191.67 651.02 191.34 650 191 C649.67 187.37 649.34 183.74 649 180 C649.66 180 650.32 180 651 180 C651 179.34 651 178.68 651 178 C649.35 178 647.7 178 646 178 C646.33 175.03 646.66 172.06 647 169 C646.34 169 645.68 169 645 169 C645 169.66 645 170.32 645 171 C644.01 171 643.02 171 642 171 C642 170.34 642 169.68 642 169 C641.34 168.67 640.68 168.34 640 168 C640 166 640 166 642 164 C641.34 164 640.68 164 640 164 C640 163.34 640 162.68 640 162 C639.01 162 638.02 162 637 162 C637 160.35 637 158.7 637 157 C637.66 157 638.32 157 639 157 C638.34 154.03 637.68 151.06 637 148 C636.34 148 635.68 148 635 148 C635 147.34 635 146.68 635 146 C634.34 146 633.68 146 633 146 C633 145.34 633 144.68 633 144 C632.34 144 631.68 144 631 144 C630.67 143.01 630.34 142.02 630 141 C629.34 141 628.68 141 628 141 C628 138.69 628 136.38 628 134 C627.34 134 626.68 134 626 134 C626 133.34 626 132.68 626 132 C625.34 132 624.68 132 624 132 C624 131.34 624 130.68 624 130 C622.35 130 620.7 130 619 130 C619 127.69 619 125.38 619 123 C618.34 123 617.68 123 617 123 C617 122.34 617 121.68 617 121 C616.01 121 615.02 121 614 121 C614 118.69 614 116.38 614 114 C611.69 114 609.38 114 607 114 C607 112.35 607 110.7 607 109 C605.02 109 603.04 109 601 109 C601 108.34 601 107.68 601 107 C600.01 107 599.02 107 598 107 C598.33 105.35 598.66 103.7 599 102 C597.35 101.67 595.7 101.34 594 101 C594.33 100.01 594.66 99.02 595 98 C593.02 98 591.04 98 589 98 C589 95.69 589 93.38 589 91 C588.34 91 587.68 91 587 91 C587 90.01 587 89.02 587 88 C582.38 88 577.76 88 573 88 C572.67 86.68 572.34 85.36 572 84 C571.01 84 570.02 84 569 84 C568.67 83.01 568.34 82.02 568 81 C562.86308839 79.00813631 558.47549707 78.8078773 553 79 C553 78.34 553 77.68 553 77 C552.01 77 551.02 77 550 77 C550 76.34 550 75.68 550 75 C549.34 75 548.68 75 548 75 C548 74.01 548 73.02 548 72 C541.73 72 535.46 72 529 72 C528.67 70.02 528.34 68.04 528 66 C526.82170415 64.59374449 526.82170415 64.59374449 523.48999023 64.88647461 C521.92951578 64.88663374 520.36903607 64.89232858 518.80859375 64.90234375 C517.57883568 64.90446617 517.57883568 64.90446617 516.32423401 64.90663147 C513.69528618 64.91224711 511.06642227 64.92480221 508.4375 64.9375 C506.65950643 64.94251299 504.88151154 64.94707624 503.10351562 64.95117188 C498.73564455 64.96222161 494.36783652 64.97949669 490 65 C490 64.34 490 63.68 490 63 C489.01 63 488.02 63 487 63 Z M-8 65 C-8 65.99 -8 66.98 -8 68 C-9.98 68 -11.96 68 -14 68 C-14 68.99 -14 69.98 -14 71 C-18.455 71.495 -18.455 71.495 -23 72 C-23 71.34 -23 70.68 -23 70 C-25.31 70 -27.62 70 -30 70 C-30 70.66 -30 71.32 -30 72 C-30.99 72 -31.98 72 -33 72 C-32.505 74.475 -32.505 74.475 -32 77 C-33.423125 77.1546875 -33.423125 77.1546875 -34.875 77.3125 C-39.73491554 77.9910919 -44.33803874 79.5085476 -49 81 C-49 81.99 -49 82.98 -49 84 C-51.97 84 -54.94 84 -58 84 C-58 85.32 -58 86.64 -58 88 C-62.62 88 -67.24 88 -72 88 C-72 89.65 -72 91.3 -72 93 C-72.66 93 -73.32 93 -74 93 C-74 94.65 -74 96.3 -74 98 C-74.66 98 -75.32 98 -76 98 C-76 98.66 -76 99.32 -76 100 C-77.32 100 -78.64 100 -80 100 C-80 100.66 -80 101.32 -80 102 C-80.99 102 -81.98 102 -83 102 C-83 103.65 -83 105.3 -83 107 C-83.66 107 -84.32 107 -85 107 C-85 107.66 -85 108.32 -85 109 C-86.65 109 -88.3 109 -90 109 C-90 109.66 -90 110.32 -90 111 C-90.99 111.33 -91.98 111.66 -93 112 C-93 112.66 -93 113.32 -93 114 C-93.99 114 -94.98 114 -96 114 C-96.33 115.32 -96.66 116.64 -97 118 C-97.66 118 -98.32 118 -99 118 C-99 119.65 -99 121.3 -99 123 C-100.65 123 -102.3 123 -104 123 C-104 124.32 -104 125.64 -104 127 C-106.475 127.495 -106.475 127.495 -109 128 C-109 128.66 -109 129.32 -109 130 C-109.66 130 -110.32 130 -111 130 C-111 131.32 -111 132.64 -111 134 C-112.175625 134.185625 -112.175625 134.185625 -113.375 134.375 C-116.14057822 134.79117993 -116.14057822 134.79117993 -118 137 C-118.16677282 140.58343976 -118.16677282 140.58343976 -118 144 C-118.66 144 -119.32 144 -120 144 C-120 144.66 -120 145.32 -120 146 C-120.66 146 -121.32 146 -122 146 C-122 148.31 -122 150.62 -122 153 C-122.99 153 -123.98 153 -125 153 C-124.67 155.97 -124.34 158.94 -124 162 C-125.98 162.495 -125.98 162.495 -128 163 C-127.67 164.98 -127.34 166.96 -127 169 C-127.66 169 -128.32 169 -129 169 C-129 171.31 -129 173.62 -129 176 C-130.65 176 -132.3 176 -134 176 C-134 179.63 -134 183.26 -134 187 C-134.66 187 -135.32 187 -136 187 C-136 187.66 -136 188.32 -136 189 C-135.34 189 -134.68 189 -134 189 C-134 189.99 -134 190.98 -134 192 C-134.66 192 -135.32 192 -136 192 C-136 195.63 -136 199.26 -136 203 C-138.475 203.99 -138.475 203.99 -141 205 C-140.01 205.33 -139.02 205.66 -138 206 C-138 209.63 -138 213.26 -138 217 C-138.99 217 -139.98 217 -141 217 C-141.33 221.62 -141.66 226.24 -142 231 C-140.68 231 -139.36 231 -138 231 C-138.11351517 232.81325551 -138.24112961 234.62563357 -138.375 236.4375 C-138.44460938 237.44683594 -138.51421875 238.45617188 -138.5859375 239.49609375 C-138.79089844 240.73552734 -138.79089844 240.73552734 -139 242 C-139.66 242.33 -140.32 242.66 -141 243 C-141 244.32 -141 245.64 -141 247 C-140.01 247 -139.02 247 -138 247 C-138.495 248.98 -138.495 248.98 -139 251 C-138.01 251.33 -137.02 251.66 -136 252 C-136 253.32 -136 254.64 -136 256 C-135.34 256 -134.68 256 -134 256 C-134 258.31 -134 260.62 -134 263 C-133.34 263.33 -132.68 263.66 -132 264 C-132 265.32 -132 266.64 -132 268 C-131.01 268 -130.02 268 -129 268 C-129 271.63 -129 275.26 -129 279 C-129.99 279.33 -130.98 279.66 -132 280 C-132 280.66 -132 281.32 -132 282 C-131.01 282 -130.02 282 -129 282 C-129 282.66 -129 283.32 -129 284 C-128.34 284 -127.68 284 -127 284 C-127 286.31 -127 288.62 -127 291 C-126.34 291 -125.68 291 -125 291 C-125 291.66 -125 292.32 -125 293 C-124.01 293 -123.02 293 -122 293 C-122 294.65 -122 296.3 -122 298 C-120.02 298.33 -118.04 298.66 -116 299 C-116 301.64 -116 304.28 -116 307 C-115.34 307 -114.68 307 -114 307 C-114 307.66 -114 308.32 -114 309 C-113.01 309 -112.02 309 -111 309 C-111 310.65 -111 312.3 -111 314 C-110.34 314 -109.68 314 -109 314 C-109 314.66 -109 315.32 -109 316 C-108.01 316 -107.02 316 -106 316 C-106 318.31 -106 320.62 -106 323 C-105.34 323 -104.68 323 -104 323 C-104 323.66 -104 324.32 -104 325 C-103.34 325 -102.68 325 -102 325 C-102 325.99 -102 326.98 -102 328 C-101.34 328 -100.68 328 -100 328 C-100 328.66 -100 329.32 -100 330 C-99.01 330 -98.02 330 -97 330 C-97 330.66 -97 331.32 -97 332 C-95.68 332 -94.36 332 -93 332 C-92.690625 332.639375 -92.38125 333.27875 -92.0625 333.9375 C-91.1654837 335.93610821 -91.1654837 335.93610821 -90 337 C-88.33382885 337.04063832 -86.66611905 337.042721 -85 337 C-85.185625 337.639375 -85.37125 338.27875 -85.5625 338.9375 C-85.706875 339.618125 -85.85125 340.29875 -86 341 C-84.81575674 342.41577477 -84.81575674 342.41577477 -81.4375 342.0625 C-79.7359375 342.0315625 -79.7359375 342.0315625 -78 342 C-78 342.66 -78 343.32 -78 344 C-78.99 344.33 -79.98 344.66 -81 345 C-81 345.33 -81 345.66 -81 346 C-79.35 346 -77.7 346 -76 346 C-76 348.31 -76 350.62 -76 353 C-74.02 352.67 -72.04 352.34 -70 352 C-70.020625 352.804375 -70.04125 353.60875 -70.0625 354.4375 C-70.29633621 356.93354885 -70.29633621 356.93354885 -69 358 C-67.00041636 358.04080783 -64.99954746 358.04254356 -63 358 C-63 358.66 -63 359.32 -63 360 C-61.35 360 -59.7 360 -58 360 C-58 361.32 -58 362.64 -58 364 C-55.69 364.33 -53.38 364.66 -51 365 C-51 365.66 -51 366.32 -51 367 C-50.34 367 -49.68 367 -49 367 C-49 367.66 -49 368.32 -49 369 C-47.35 369 -45.7 369 -44 369 C-44 369.66 -44 370.32 -44 371 C-43.01 371 -42.02 371 -41 371 C-41 370.34 -41 369.68 -41 369 C-39.02 369 -37.04 369 -35 369 C-35 370.65 -35 372.3 -35 374 C-28.73 374 -22.46 374 -16 374 C-16.33 375.32 -16.66 376.64 -17 378 C-12.38 378 -7.76 378 -3 378 C-3 379.65 -3 381.3 -3 383 C-0.69 383 1.62 383 4 383 C4 382.34 4 381.68 4 381 C5.32 380.67 6.64 380.34 8 380 C8 379.34 8 378.68 8 378 C10.58366245 378.14120016 13.16682885 378.28778333 15.75 378.4375 C16.84441406 378.49647461 16.84441406 378.49647461 17.9609375 378.55664062 C21.4272973 378.76147098 24.65333026 379.0852002 28 380 C28 379.67 28 379.34 28 379 C29.65 378.67 31.3 378.34 33 378 C33.33 378.99 33.66 379.98 34 381 C34.33 380.01 34.66 379.02 35 378 C38.63 378 42.26 378 46 378 C46 377.34 46 376.68 46 376 C47.98 376 49.96 376 52 376 C52 376.66 52 377.32 52 378 C52.99 378 53.98 378 55 378 C55 377.34 55 376.68 55 376 C56.65 376 58.3 376 60 376 C60 374.35 60 372.7 60 371 C61.98 371 63.96 371 66 371 C66 371.99 66 372.98 66 374 C66.99 374 67.98 374 69 374 C69 373.01 69 372.02 69 371 C71.31 371 73.62 371 76 371 C76 369.68 76 368.36 76 367 C79.14930893 365.95023036 81.38814456 365.89868405 84.6875 365.9375 C85.68136719 365.94652344 86.67523437 365.95554687 87.69921875 365.96484375 C88.83810547 365.98224609 88.83810547 365.98224609 90 366 C90.391875 364.865625 90.78375 363.73125 91.1875 362.5625 C91.785625 361.386875 92.38375 360.21125 93 359 C95.625 358.1875 95.625 358.1875 98 358 C98.33 357.34 98.66 356.68 99 356 C99.99 355.67 100.98 355.34 102 355 C102 354.34 102 353.68 102 353 C103.32 353 104.64 353 106 353 C106 352.34 106 351.68 106 351 C106.66 351 107.32 351 108 351 C108 350.01 108 349.02 108 348 C108.99 348 109.98 348 111 348 C111 347.34 111 346.68 111 346 C111.928125 346.04125 112.85625 346.0825 113.8125 346.125 C117.15809719 346.27136339 117.15809719 346.27136339 120 344 C120 343.34 120 342.68 120 342 C121.98 341.67 123.96 341.34 126 341 C125.34 340.67 124.68 340.34 124 340 C124 339.01 124 338.02 124 337 C127.3 336.34 130.6 335.68 134 335 C134 332.03 134 329.06 134 326 C136.31 325.67 138.62 325.34 141 325 C140.67 323.02 140.34 321.04 140 319 C140.99 318.67 141.98 318.34 143 318 C143 317.01 143 316.02 143 315 C145.31 314.67 147.62 314.34 150 314 C150 312.68 150 311.36 150 310 C151.32 309.67 152.64 309.34 154 309 C154 305.37 154 301.74 154 298 C154.99 298 155.98 298 157 298 C157 297.34 157 296.68 157 296 C157.66 296 158.32 296 159 296 C159 295.01 159 294.02 159 293 C159.66 293 160.32 293 161 293 C161 291.68 161 290.36 161 289 C161.66 289 162.32 289 163 289 C163 286.69 163 284.38 163 282 C164.65 282 166.3 282 168 282 C168 281.01 168 280.02 168 279 C168.66 279 169.32 279 170 279 C170 273.06 170 267.12 170 261 C170.99 261 171.98 261 173 261 C173 260.34 173 259.68 173 259 C173.66 259 174.32 259 175 259 C175 258.34 175 257.68 175 257 C174.01 257 173.02 257 172 257 C172.61538462 250.47692308 172.61538462 250.47692308 174.5625 248.0625 C175.036875 247.711875 175.51125 247.36125 176 247 C175.525625 246.649375 175.05125 246.29875 174.5625 245.9375 C172.32126175 243.15836457 172.32882342 240.4855283 172 237 C172.66 236.67 173.32 236.34 174 236 C173.34 234.35 172.68 232.7 172 231 C172.99 231 173.98 231 175 231 C175.99418527 222.51118727 175.89073566 214.49624785 175 206 C175.66 205.67 176.32 205.34 177 205 C176.34 205 175.68 205 175 205 C175 204.34 175 203.68 175 203 C174.01 203 173.02 203 172 203 C172.33 201.02 172.66 199.04 173 197 C172.34 196.67 171.68 196.34 171 196 C170.9906543 195.35450195 170.98130859 194.70900391 170.97167969 194.04394531 C170.91790899 191.11186056 170.8342766 188.18135992 170.75 185.25 C170.73582031 184.23421875 170.72164062 183.2184375 170.70703125 182.171875 C170.68926451 176.40163307 170.68926451 176.40163307 167.96875 171.5625 C167.3190625 171.046875 166.669375 170.53125 166 170 C165.49244153 167.21857957 165.80971486 164.8542771 166 162 C164.35 162 162.7 162 161 162 C161 158.04 161 154.08 161 150 C160.34 150 159.68 150 159 150 C159 148.68 159 147.36 159 146 C157.35 146 155.7 146 154 146 C154 144.68 154 143.36 154 142 C153.34 142 152.68 142 152 142 C151.67 140.35 151.34 138.7 151 137 C150.67 137 150.34 137 150 137 C149.67 134.03 149.34 131.06 149 128 C147.7934375 127.814375 147.7934375 127.814375 146.5625 127.625 C145.716875 127.41875 144.87125 127.2125 144 127 C143.67 126.34 143.34 125.68 143 125 C142.34 125 141.68 125 141 125 C141 124.34 141 123.68 141 123 C140.01 123 139.02 123 138 123 C138 121.35 138 119.7 138 118 C136.35 118 134.7 118 133 118 C133 116.68 133 115.36 133 114 C133.66 113.67 134.32 113.34 135 113 C134.34 112.34 133.68 111.68 133 111 C131.68 111 130.36 111 129 111 C129 109.68 129 108.36 129 107 C126.69 107 124.38 107 122 107 C122 105.35 122 103.7 122 102 C119.69 102 117.38 102 115 102 C115.06510417 100.01432292 115.13020833 98.02864583 115.1953125 96.04296875 C115.13254462 93.68640281 115.13254462 93.68640281 113 91 C110.3443272 90.41651248 110.3443272 90.41651248 107.375 90.3125 C105.87066406 90.21388672 105.87066406 90.21388672 104.3359375 90.11328125 C103.56507813 90.07589844 102.79421875 90.03851562 102 90 C101.67 88.68 101.34 87.36 101 86 C100.34 86 99.68 86 99 86 C99 85.34 99 84.68 99 84 C97.02 84 95.04 84 93 84 C92.67 83.01 92.34 82.02 92 81 C90.02 82.485 90.02 82.485 88 84 C87.67 83.01 87.34 82.02 87 81 C86.34 81 85.68 81 85 81 C85 80.34 85 79.68 85 79 C82.69 79 80.38 79 78 79 C78 77.68 78 76.36 78 75 C75.03 75 72.06 75 69 75 C69 74.01 69 73.02 69 72 C68.34 72 67.68 72 67 72 C67 71.34 67 70.68 67 70 C65.35 70 63.7 70 62 70 C62 69.34 62 68.68 62 68 C61.01 68 60.02 68 59 68 C59 68.66 59 69.32 59 70 C57.68 70 56.36 70 55 70 C55 69.34 55 68.68 55 68 C45.1 68 35.2 68 25 68 C25 67.01 25 66.02 25 65 C23.35 65.33 21.7 65.66 20 66 C20 66.33 20 66.66 20 67 C18.35 67.33 16.7 67.66 15 68 C15 68.66 15 69.32 15 70 C13.35 70 11.7 70 10 70 C10 69.34 10 68.68 10 68 C4.39 68 -1.22 68 -7 68 C-7.33 67.01 -7.66 66.02 -8 65 Z M311 341 C311 341.66 311 342.32 311 343 C311.66 342.67 312.32 342.34 313 342 C312.34 341.67 311.68 341.34 311 341 Z M404 349 C403.67 349.66 403.34 350.32 403 351 C403.66 351 404.32 351 405 351 C404.67 350.34 404.34 349.68 404 349 Z M546 372 C546.66 372.66 547.32 373.32 548 374 C548 373.34 548 372.68 548 372 C547.34 372 546.68 372 546 372 Z M463 376 C464 378 464 378 464 378 Z M641 390 C641.33 390.66 641.66 391.32 642 392 C642.66 392 643.32 392 644 392 C644 391.34 644 390.68 644 390 C643.01 390 642.02 390 641 390 Z " fill="#000000" transform="translate(1123,986)"/>
<path d="M0 0 C1.65 0 3.3 0 5 0 C5 0.99 5 1.98 5 3 C8.3 3 11.6 3 15 3 C15 2.01 15 1.02 15 0 C18.66666667 0 22.33333333 0 26 0 C26 0.99 26 1.98 26 3 C28.97 3 31.94 3 35 3 C35 3.66 35 4.32 35 5 C40.94 5 46.88 5 53 5 C53 5.66 53 6.32 53 7 C54.65 7 56.3 7 58 7 C58 7.66 58 8.32 58 9 C58.99 9.495 58.99 9.495 60 10 C60 10.66 60 11.32 60 12 C60.66 12 61.32 12 62 12 C62 11.34 62 10.68 62 10 C62.99 10 63.98 10 65 10 C65 10.66 65 11.32 65 12 C65.66 12 66.32 12 67 12 C67.12375 12.804375 67.2475 13.60875 67.375 14.4375 C67.58125 15.283125 67.7875 16.12875 68 17 C68.66 17.33 69.32 17.66 70 18 C70 18.99 70 19.98 70 21 C73.63 21 77.26 21 81 21 C81 23.31 81 25.62 81 28 C83.31 28 85.62 28 88 28 C88 29.65 88 31.3 88 33 C89.65 33.33 91.3 33.66 93 34 C93 35.65 93 37.3 93 39 C94.32 39.33 95.64 39.66 97 40 C97 40.66 97 41.32 97 42 C97.66 42 98.32 42 99 42 C99 42.66 99 43.32 99 44 C99.99 44 100.98 44 102 44 C101.67 45.65 101.34 47.3 101 49 C102.65 49 104.3 49 106 49 C106 49.66 106 50.32 106 51 C106.99 51 107.98 51 109 51 C108.67 52.65 108.34 54.3 108 56 C108.99 56.66 109.98 57.32 111 58 C111 58.66 111 59.32 111 60 C111.66 60 112.32 60 113 60 C113 61.65 113 63.3 113 65 C114.65 65.66 116.3 66.32 118 67 C118 70.96 118 74.92 118 79 C118.66 79 119.32 79 120 79 C120 81.97 120 84.94 120 88 C120.99 88 121.98 88 123 88 C123 90.64 123 93.28 123 96 C123.66 96.33 124.32 96.66 125 97 C125 97.66 125 98.32 125 99 C125.66 99 126.32 99 127 99 C127 101.31 127 103.62 127 106 C126.34 106 125.68 106 125 106 C125 108.31 125 110.62 125 113 C124.34 113 123.68 113 123 113 C123 118.28 123 123.56 123 129 C122.01 129 121.02 129 120 129 C120 129.99 120 130.98 120 132 C119.34 132 118.68 132 118 132 C118 136.29 118 140.58 118 145 C117.34 145 116.68 145 116 145 C116 147.31 116 149.62 116 152 C115.01 152 114.02 152 113 152 C113 154.97 113 157.94 113 161 C112.34 161 111.68 161 111 161 C111 164.3 111 167.6 111 171 C108.69 171 106.38 171 104 171 C104 173.31 104 175.62 104 178 C103.34 178 102.68 178 102 178 C102 178.66 102 179.32 102 180 C101.01 180 100.02 180 99 180 C99 180.66 99 181.32 99 182 C98.34 182 97.68 182 97 182 C97 182.66 97 183.32 97 184 C96.34 184 95.68 184 95 184 C95 184.99 95 185.98 95 187 C94.01 187.33 93.02 187.66 92 188 C92 188.99 92 189.98 92 191 C91.34 191 90.68 191 90 191 C89.34 192.65 88.68 194.3 88 196 C86.35 196 84.7 196 83 196 C83 196.66 83 197.32 83 198 C82.34 198 81.68 198 81 198 C81.020625 198.969375 81.04125 199.93875 81.0625 200.9375 C81 204 81 204 80 205 C78.00041636 205.04080783 75.99954746 205.04254356 74 205 C74 205.66 74 206.32 74 207 C73.360625 207.12375 72.72125 207.2475 72.0625 207.375 C71.381875 207.58125 70.70125 207.7875 70 208 C69.67 208.66 69.34 209.32 69 210 C66.03 210 63.06 210 60 210 C60 210.66 60 211.32 60 212 C59.34 212 58.68 212 58 212 C58 213.65 58 215.3 58 217 C54.625 217.1875 54.625 217.1875 51 217 C50.34 216.01 49.68 215.02 49 214 C49.33 213.34 49.66 212.68 50 212 C49.34 212 48.68 212 48 212 C47.62875 213.2065625 47.62875 213.2065625 47.25 214.4375 C46 217 46 217 43.875 217.8125 C43.25625 217.874375 42.6375 217.93625 42 218 C42 218.99 42 219.98 42 221 C38.35418313 221.02887512 34.70839537 221.04675585 31.0625 221.0625 C30.02158203 221.07087891 28.98066406 221.07925781 27.90820312 221.08789062 C26.91884766 221.09111328 25.92949219 221.09433594 24.91015625 221.09765625 C23.99371338 221.10289307 23.07727051 221.10812988 22.13305664 221.11352539 C20 221 20 221 19 220 C16.67182036 219.63239269 14.3381615 219.29758419 12 219 C12 219.66 12 220.32 12 221 C11.030625 221.12375 10.06125 221.2475 9.0625 221.375 C8.051875 221.58125 7.04125 221.7875 6 222 C5.67 222.66 5.34 223.32 5 224 C2.36 224 -0.28 224 -3 224 C-3.33 223.34 -3.66 222.68 -4 222 C-7.27555608 221.52998967 -7.27555608 221.52998967 -11.0625 221.375 C-12.35285156 221.30023437 -13.64320312 221.22546875 -14.97265625 221.1484375 C-16.47119141 221.07496094 -16.47119141 221.07496094 -18 221 C-18 220.01 -18 219.02 -18 218 C-21.63 217.67 -25.26 217.34 -29 217 C-29 216.01 -29 215.02 -29 214 C-29.66 214 -30.32 214 -31 214 C-31 213.34 -31 212.68 -31 212 C-31.99 212 -32.98 212 -34 212 C-34 211.34 -34 210.68 -34 210 C-36.97 210 -39.94 210 -43 210 C-43 209.01 -43 208.02 -43 207 C-44.32 207 -45.64 207 -47 207 C-47 206.34 -47 205.68 -47 205 C-47.99 205 -48.98 205 -50 205 C-50 204.34 -50 203.68 -50 203 C-51.98 203 -53.96 203 -56 203 C-56 202.34 -56 201.68 -56 201 C-57.65 200.67 -59.3 200.34 -61 200 C-61 198.68 -61 197.36 -61 196 C-60.34 196 -59.68 196 -59 196 C-59 195.34 -59 194.68 -59 194 C-60.32 194 -61.64 194 -63 194 C-63.66 192.35 -64.32 190.7 -65 189 C-65.99 189 -66.98 189 -68 189 C-68 188.34 -68 187.68 -68 187 C-68.66 187 -69.32 187 -70 187 C-70.495 185.02 -70.495 185.02 -71 183 C-71.66 183 -72.32 183 -73 183 C-73 181.35 -73 179.7 -73 178 C-73.66 178 -74.32 178 -75 178 C-75 177.01 -75 176.02 -75 175 C-75.78375 174.855625 -76.5675 174.71125 -77.375 174.5625 C-80 174 -80 174 -82 173 C-82 170.69 -82 168.38 -82 166 C-82.66 166 -83.32 166 -84 166 C-84.268125 165.030625 -84.53625 164.06125 -84.8125 163.0625 C-85.4003125 161.5465625 -85.4003125 161.5465625 -86 160 C-86.99 159.67 -87.98 159.34 -89 159 C-89 156.03 -89 153.06 -89 150 C-89.99 150 -90.98 150 -92 150 C-92 148.02 -92 146.04 -92 144 C-93.32 143.67 -94.64 143.34 -96 143 C-96.26218749 139.85375007 -96.24754367 138.38162983 -94.5 135.6875 C-94.005 135.130625 -93.51 134.57375 -93 134 C-93.99 134 -94.98 134 -96 134 C-98.13604308 130.79593538 -98.24208908 130.00399253 -98.1953125 126.33203125 C-98.18886719 125.43935547 -98.18242188 124.54667969 -98.17578125 123.62695312 C-98.15902344 122.69818359 -98.14226562 121.76941406 -98.125 120.8125 C-98.11597656 119.87212891 -98.10695313 118.93175781 -98.09765625 117.96289062 C-98.07409056 115.64167032 -98.04119116 113.32096356 -98 111 C-98.99 110.67 -99.98 110.34 -101 110 C-100.67 108.68 -100.34 107.36 -100 106 C-99.34 106 -98.68 106 -98 106 C-98 105.34 -98 104.68 -98 104 C-97.34 104 -96.68 104 -96 104 C-96 103.34 -96 102.68 -96 102 C-96.66 102 -97.32 102 -98 102 C-98.05395478 100.37536158 -98.09277195 98.75021459 -98.125 97.125 C-98.14820313 96.22007813 -98.17140625 95.31515625 -98.1953125 94.3828125 C-98 92 -98 92 -96 90 C-95.01 90 -94.02 90 -93 90 C-93.33 89.34 -93.66 88.68 -94 88 C-94.06996014 86.29297265 -94.08440154 84.58331997 -94.0625 82.875 C-94.05347656 81.96492188 -94.04445313 81.05484375 -94.03515625 80.1171875 C-94.02355469 79.41851563 -94.01195312 78.71984375 -94 78 C-93.34 78 -92.68 78 -92 78 C-91.67 76.68 -91.34 75.36 -91 74 C-91.99 73.67 -92.98 73.34 -94 73 C-94 71.35 -94 69.7 -94 68 C-92.515 67.505 -92.515 67.505 -91 67 C-91 65.68 -91 64.36 -91 63 C-89.68 63 -88.36 63 -87 63 C-87 62.34 -87 61.68 -87 61 C-87.66 61 -88.32 61 -89 61 C-89 60.01 -89 59.02 -89 58 C-88.01 58 -87.02 58 -86 58 C-86 57.34 -86 56.68 -86 56 C-85.34 56 -84.68 56 -84 56 C-84 55.01 -84 54.02 -84 53 C-83.34 53 -82.68 53 -82 53 C-82 51.68 -82 50.36 -82 49 C-79.525 48.505 -79.525 48.505 -77 48 C-76.34 46.02 -75.68 44.04 -75 42 C-72.69 42 -70.38 42 -68 42 C-68 41.01 -68 40.02 -68 39 C-68.99 39 -69.98 39 -71 39 C-70.67 37.68 -70.34 36.36 -70 35 C-68.68 35 -67.36 35 -66 35 C-66 34.34 -66 33.68 -66 33 C-64.35 33 -62.7 33 -61 33 C-61 32.01 -61 31.02 -61 30 C-60.01 30 -59.02 30 -58 30 C-57.34 27.69 -56.68 25.38 -56 23 C-54.68 23 -53.36 23 -52 23 C-52 22.34 -52 21.68 -52 21 C-49.69 21 -47.38 21 -45 21 C-45 18.69 -45 16.38 -45 14 C-44.01 14 -43.02 14 -42 14 C-42 13.34 -42 12.68 -42 12 C-41.34 12 -40.68 12 -40 12 C-40 12.66 -40 13.32 -40 14 C-38.02 14 -36.04 14 -34 14 C-34 13.34 -34 12.68 -34 12 C-29.82262526 10.40861915 -26.46839215 9.78721942 -22 10 C-22 8.35 -22 6.7 -22 5 C-19.69 5 -17.38 5 -15 5 C-15 4.34 -15 3.68 -15 3 C-13.68 3 -12.36 3 -11 3 C-11 3.66 -11 4.32 -11 5 C-10.01 5 -9.02 5 -8 5 C-8 4.34 -8 3.68 -8 3 C-5.36 2.67 -2.72 2.34 0 2 C0 1.34 0 0.68 0 0 Z " fill="#000000" transform="translate(1129,1097)"/>
<path d="M0 0 C1.32 0 2.64 0 4 0 C4 0.99 4 1.98 4 3 C9.28 3 14.56 3 20 3 C20 3.66 20 4.32 20 5 C24.62 5 29.24 5 34 5 C34 5.66 34 6.32 34 7 C35.65 7 37.3 7 39 7 C39 7.66 39 8.32 39 9 C40.98 9.495 40.98 9.495 43 10 C43 10.66 43 11.32 43 12 C46.37817425 12.84454356 48.67465243 13.10844919 52 12 C52 12.66 52 13.32 52 14 C52.99 14 53.98 14 55 14 C55 15.65 55 17.3 55 19 C56.98 19 58.96 19 61 19 C61 19.66 61 20.32 61 21 C62.65 21 64.3 21 66 21 C66 21.66 66 22.32 66 23 C67.65 23.33 69.3 23.66 71 24 C70.67 25.32 70.34 26.64 70 28 C71.98 28 73.96 28 76 28 C76 29.65 76 31.3 76 33 C77.32 33 78.64 33 80 33 C80 33.66 80 34.32 80 35 C80.99 35 81.98 35 83 35 C83 36.32 83 37.64 83 39 C83.66 39.33 84.32 39.66 85 40 C85 40.66 85 41.32 85 42 C86.32 42 87.64 42 89 42 C89.33 43.32 89.66 44.64 90 46 C90.66 46 91.32 46 92 46 C92.33 47.65 92.66 49.3 93 51 C93.99 51 94.98 51 96 51 C96 54.96 96 58.92 96 63 C96.66 63 97.32 63 98 63 C98 63.66 98 64.32 98 65 C98.99 65 99.98 65 101 65 C101 66.32 101 67.64 101 69 C101.66 69 102.32 69 103 69 C103 72.96 103 76.92 103 81 C103.66 81 104.32 81 105 81 C105 81.66 105 82.32 105 83 C105.99 83 106.98 83 108 83 C108 84.65 108 86.3 108 88 C108.66 88 109.32 88 110 88 C110 89.32 110 90.64 110 92 C109.34 92 108.68 92 108 92 C108 92.99 108 93.98 108 95 C108.66 95 109.32 95 110 95 C110.06058594 95.73605469 110.12117188 96.47210937 110.18359375 97.23046875 C110.26738281 98.20628906 110.35117188 99.18210937 110.4375 100.1875 C110.51871094 101.15042969 110.59992188 102.11335938 110.68359375 103.10546875 C110.94727553 105.99022429 110.94727553 105.99022429 111.59765625 108.73828125 C112 111 112 111 111 113 C110.77141886 115.0374763 110.58975722 117.08040303 110.4375 119.125 C110.35371094 120.22070312 110.26992187 121.31640625 110.18359375 122.4453125 C110.12300781 123.28835938 110.06242187 124.13140625 110 125 C109.34 125 108.68 125 108 125 C108 125.66 108 126.32 108 127 C107.67 127.33 107.34 127.66 107 128 C107.33 128 107.66 128 108 128 C108 129.98 108 131.96 108 134 C107.34 134.33 106.68 134.66 106 135 C106 135.99 106 136.98 106 138 C105.01 138 104.02 138 103 138 C103 141.96 103 145.92 103 150 C102.34 150 101.68 150 101 150 C101 153.63 101 157.26 101 161 C99.02 161.99 99.02 161.99 97 163 C97.66 163.33 98.32 163.66 99 164 C99 165.32 99 166.64 99 168 C98.01 168 97.02 168 96 168 C96 168.99 96 169.98 96 171 C95.34 171 94.68 171 94 171 C94 172.32 94 173.64 94 175 C92.75 176.75 92.75 176.75 91 178 C89.68 178 88.36 178 87 178 C87 179.98 87 181.96 87 184 C86.360625 184.12375 85.72125 184.2475 85.0625 184.375 C84.381875 184.58125 83.70125 184.7875 83 185 C82.67 185.66 82.34 186.32 82 187 C81.34 187 80.68 187 80 187 C80 188.32 80 189.64 80 191 C77.03 191 74.06 191 71 191 C71 193.31 71 195.62 71 198 C69.35 198 67.7 198 66 198 C66 198.99 66 199.98 66 201 C64.68 201 63.36 201 62 201 C62 202.98 62 204.96 62 207 C61.36191406 207.04898437 60.72382812 207.09796875 60.06640625 207.1484375 C58.82697266 207.26058594 58.82697266 207.26058594 57.5625 207.375 C56.73878906 207.44460938 55.91507813 207.51421875 55.06640625 207.5859375 C54.38449219 207.72257812 53.70257812 207.85921875 53 208 C52.67 208.66 52.34 209.32 52 210 C51.34 210 50.68 210 50 210 C50 210.66 50 211.32 50 212 C48.00045254 212.04254356 45.99958364 212.04080783 44 212 C43.67 211.67 43.34 211.34 43 211 C43 211.99 43 212.98 43 214 C42.34 214 41.68 214 41 214 C41 214.99 41 215.98 41 217 C40.01 217 39.02 217 38 217 C38 217.66 38 218.32 38 219 C35.69 219 33.38 219 31 219 C31 218.34 31 217.68 31 217 C30.34 217 29.68 217 29 217 C29 217.66 29 218.32 29 219 C28.34 219 27.68 219 27 219 C27 219.66 27 220.32 27 221 C25.02 221 23.04 221 21 221 C21 220.34 21 219.68 21 219 C20.01 219 19.02 219 18 219 C18 219.66 18 220.32 18 221 C16.35 221 14.7 221 13 221 C13 221.99 13 222.98 13 224 C11.02 224 9.04 224 7 224 C7 223.34 7 222.68 7 222 C6.34 222 5.68 222 5 222 C5 222.66 5 223.32 5 224 C2.69 224 0.38 224 -2 224 C-2 223.01 -2 222.02 -2 221 C-3.65 220.67 -5.3 220.34 -7 220 C-7.66 221.32 -8.32 222.64 -9 224 C-11.31 224 -13.62 224 -16 224 C-16.33 223.01 -16.66 222.02 -17 221 C-17.99 221 -18.98 221 -20 221 C-20 220.34 -20 219.68 -20 219 C-22.97 219 -25.94 219 -29 219 C-29 218.34 -29 217.68 -29 217 C-32.96 217 -36.92 217 -41 217 C-41 216.01 -41 215.02 -41 214 C-42.65 214 -44.3 214 -46 214 C-46 213.34 -46 212.68 -46 212 C-46.66 212 -47.32 212 -48 212 C-48 211.34 -48 210.68 -48 210 C-49.65 210 -51.3 210 -53 210 C-53.495 207.525 -53.495 207.525 -54 205 C-55.98 205 -57.96 205 -60 205 C-60 204.34 -60 203.68 -60 203 C-61.65 203 -63.3 203 -65 203 C-65 200.69 -65 198.38 -65 196 C-66.32 196 -67.64 196 -69 196 C-69 195.34 -69 194.68 -69 194 C-69.66 194 -70.32 194 -71 194 C-71 193.01 -71 192.02 -71 191 C-71.99 191 -72.98 191 -74 191 C-74 190.34 -74 189.68 -74 189 C-76.31 189 -78.62 189 -81 189 C-81 187.68 -81 186.36 -81 185 C-82.32 184.67 -83.64 184.34 -85 184 C-85.66 180.37 -86.32 176.74 -87 173 C-87.66 173 -88.32 173 -89 173 C-89 173.66 -89 174.32 -89 175 C-89.99 175 -90.98 175 -92 175 C-92 172.03 -92 169.06 -92 166 C-92.66 166 -93.32 166 -94 166 C-94 165.34 -94 164.68 -94 164 C-94.99 164 -95.98 164 -97 164 C-97 163.01 -97 162.02 -97 161 C-97.66 161 -98.32 161 -99 161 C-99 158.03 -99 155.06 -99 152 C-100.32 152 -101.64 152 -103 152 C-103 151.34 -103 150.68 -103 150 C-103.99 150 -104.98 150 -106 150 C-106.05379226 147.04142591 -106.09357093 144.08382279 -106.125 141.125 C-106.14175781 140.28324219 -106.15851563 139.44148438 -106.17578125 138.57421875 C-106.18544922 137.36572266 -106.18544922 137.36572266 -106.1953125 136.1328125 C-106.21102295 135.01737061 -106.21102295 135.01737061 -106.22705078 133.87939453 C-106 132 -106 132 -104 130 C-104 128.68 -104 127.36 -104 126 C-105.32 125.67 -106.64 125.34 -108 125 C-108 119.72 -108 114.44 -108 109 C-107.34 109 -106.68 109 -106 109 C-106 102.73 -106 96.46 -106 90 C-106.66 90 -107.32 90 -108 90 C-107 82.57142857 -107 82.57142857 -106 79 C-105.34 79 -104.68 79 -104 79 C-104 76.69 -104 74.38 -104 72 C-103.01 72 -102.02 72 -101 72 C-101 70.35 -101 68.7 -101 67 C-100.34 67 -99.68 67 -99 67 C-99 65.68 -99 64.36 -99 63 C-97 61 -97 61 -95 60 C-95 58.02 -95 56.04 -95 54 C-93.515 53.505 -93.515 53.505 -92 53 C-92 52.34 -92 51.68 -92 51 C-91.34 51 -90.68 51 -90 51 C-90 49.35 -90 47.7 -90 46 C-89.34 46 -88.68 46 -88 46 C-88 45.34 -88 44.68 -88 44 C-86.35 44 -84.7 44 -83 44 C-83 42.68 -83 41.36 -83 40 C-82.34 39.34 -81.68 38.68 -81 38 C-80.67 37.34 -80.34 36.68 -80 36 C-79.34 36 -78.68 36 -78 36 C-78 35.01 -78 34.02 -78 33 C-75.69 33 -73.38 33 -71 33 C-71.495 29.535 -71.495 29.535 -72 26 C-71.01 26 -70.02 26 -69 26 C-69 25.01 -69 24.02 -69 23 C-67.35 23 -65.7 23 -64 23 C-64.495 21.515 -64.495 21.515 -65 20 C-64.01 19.67 -63.02 19.34 -62 19 C-62 19.66 -62 20.32 -62 21 C-61.34 21 -60.68 21 -60 21 C-60 20.34 -60 19.68 -60 19 C-59.01 19 -58.02 19 -57 19 C-56.34 17.35 -55.68 15.7 -55 14 C-51.37 14 -47.74 14 -44 14 C-44 13.34 -44 12.68 -44 12 C-42.35 12 -40.7 12 -39 12 C-39 10.35 -39 8.7 -39 7 C-36.69 7 -34.38 7 -32 7 C-32 6.34 -32 5.68 -32 5 C-30.68 5 -29.36 5 -28 5 C-28 4.34 -28 3.68 -28 3 C-23.05 3 -18.1 3 -13 3 C-13 3.66 -13 4.32 -13 5 C-12.34 5 -11.68 5 -11 5 C-11 4.34 -11 3.68 -11 3 C-7.37 3 -3.74 3 0 3 C0 2.01 0 1.02 0 0 Z M75 33 C74.67 33.66 74.34 34.32 74 35 C74.66 35 75.32 35 76 35 C75.67 34.34 75.34 33.68 75 33 Z " fill="#000000" transform="translate(1620,1097)"/>
<path d="" fill="#000000" transform="translate(0,0)"/>
<path d="" fill="#000000" transform="translate(0,0)"/>
<path d="M0 0 C2 1 2 1 2 1 Z " fill="#000000" transform="translate(1515,1012)"/>
<path d="" fill="#000000" transform="translate(0,0)"/>
<path d="" fill="#000000" transform="translate(0,0)"/>
<path d="" fill="#000000" transform="translate(0,0)"/>
<path d="" fill="#000000" transform="translate(0,0)"/>
<path d="" fill="#000000" transform="translate(0,0)"/>
<path d="" fill="#000000" transform="translate(0,0)"/>
</svg>
