<svg width="408" height="176" viewBox="0 0 408 176" fill="none" xmlns="http://www.w3.org/2000/svg">
<path d="M0.80147 97.9442C2.75342 90.5269 5.35601 84.671 7.91523 77.9043C12.0794 67.0168 18.9329 58.2547 26.6539 49.7095C30.9916 44.9381 35.7196 40.2534 40.7513 36.176C44.3515 33.2698 45.1323 33.2698 44.4817 25.3319C43.8744 18.0446 45.9131 15.9192 51.7256 13.1431C56.497 10.8875 58.8393 11.4948 59.1863 15.3986C59.4466 18.1314 59.837 18.1314 60.0972 18.3483C60.3141 18.5218 60.878 18.6953 61.4853 18.4784C63.6107 17.6976 66.5603 16.0059 68.6858 15.0083C79.7902 9.80307 95.7094 17.2638 95.5359 33.8337C95.4058 44.5911 92.5429 48.842 84.1712 54.8713C83.3904 55.4352 81.0915 57.1269 80.0938 57.8643C73.9344 62.3755 72.9801 62.7225 76.2767 69.923C80.8312 79.8996 83.0001 90.1365 76.884 100.287C68.1653 114.818 50.1206 121.888 35.6329 112.953C30.2108 109.613 31.5555 109.396 26.7407 114.341C19.8004 121.411 12.4698 123.059 4.74874 118.244C2.71004 116.987 1.27861 115.642 0.627964 112.909C-0.282944 109.049 -0.196191 101.545 0.844846 97.9442H0.80147ZM37.0209 98.7684C36.8474 99.1154 36.7173 99.5058 36.7173 99.8962C36.8908 103.496 45.8697 102.976 49.9037 102.933C55.9331 102.933 61.225 99.5058 64.3915 94.2572C68.252 87.8809 67.4279 81.2009 66.5603 74.9547C65.9964 70.9207 61.7889 67.2336 54.892 66.7131C51.3352 66.4095 49.2965 67.7108 48.1253 71.1375C44.9154 80.6804 43.2671 87.5339 36.9775 98.7684H37.0209ZM54.9354 46.6298C55.0656 52.2253 55.5427 53.3965 57.7549 55.3051C61.0949 58.1679 66.9941 56.1292 70.2907 53.7869C77.4045 48.7552 80.4408 42.4222 80.7011 34.2241C80.918 27.1537 75.6694 22.6425 67.7315 24.8547C57.885 27.5875 55.4993 30.7106 54.892 46.5864L54.9354 46.6298ZM11.9059 105.752C12.5131 108.355 19.1498 107.357 21.6222 102.542C28.8227 88.4882 33.3339 75.7354 38.0186 59.9464C38.3656 58.7318 40.9682 52.7892 38.0186 52.7892C34.8955 52.7892 34.4617 54.0905 33.6375 55.175C29.6469 60.5536 25.7864 66.1492 22.2729 71.8749C15.9833 82.1118 9.78042 95.4284 11.8625 105.795L11.9059 105.752Z" fill="#E86F3D"/>
<path d="M142.686 0C143.814 1.12779 147.284 4.68467 147.284 4.72805V13.4901C144.291 13.4901 141.038 13.4901 137.871 13.4901C137.871 13.013 137.871 9.49947 137.871 9.02233C137.568 9.0657 135.833 9.02233 135.529 9.02233C135.529 15.5288 135.529 23.9872 135.529 30.4937H137.915V24.2475H147.284V33.3566L142.643 37.9545H130.454L125.943 33.4V4.8148L130.497 0.0433766C135.182 0.0433766 138.002 0.0433766 142.686 0.0433766V0Z" fill="#E86F3D"/>
<path d="M247.571 0V8.45843H239.85V14.1408H245.662V23.0763H239.85C239.85 27.8044 239.85 37.781 239.85 37.9111H230.307V0H247.571Z" fill="#E86F3D"/>
<path d="M282.359 0V8.45843H274.638V14.1408H280.45V23.0763H274.638C274.638 27.8044 274.638 37.781 274.638 37.9111H265.095V0H282.359Z" fill="#E86F3D"/>
<path d="M175.305 0C175.305 9.75973 175.305 20.387 175.305 30.4937H180.858C180.858 30.4937 180.858 37.8244 180.858 37.8677H165.676V0H175.262H175.305Z" fill="#E86F3D"/>
<path d="M210.354 0V37.9111H200.767V0H210.354Z" fill="#E86F3D"/>
<path d="M330.29 102.412C330.81 105.448 349.896 111.608 359.396 98.8552C362.389 94.8646 363.733 93.2163 371.584 83.8903C374.057 80.9407 376.096 77.0802 378.481 74.0004C381.474 70.1399 383.123 67.6675 383.209 64.501C383.209 63.1563 382.862 61.9418 382.342 60.4236C380.824 55.9992 382.125 51.6615 385.812 48.6685C389.889 45.3719 394.531 44.6779 397.654 47.1503C400.039 49.0589 402.902 53.5701 398.825 56.6064C394.878 59.556 395.615 63.5033 397.133 67.4072C397.48 68.3181 401.037 75.215 401.471 75.9958C405.592 83.0661 404.204 89.8329 403.77 92.4789C402.902 97.8576 401.558 100.417 397.914 104.321L397.827 104.451C397.827 104.451 397.827 104.928 397.957 105.058C397.957 105.058 398.044 105.058 398.044 105.101C399.172 105.492 402.252 107.357 406.329 106.923C407.977 106.75 408.064 107.834 407.977 108.355C407.804 109.482 406.806 110.22 406.242 111.738C405.505 113.733 405.375 114.991 404.507 115.468C402.772 116.423 400.56 115.295 397.263 113.343C394.053 111.434 390.757 112.172 387.46 113.43C378.785 116.77 371.845 115.772 363.69 111.521C360.784 110.003 358.745 108.962 353.713 111.304C347.51 114.211 332.936 116.553 322.439 110.176C317.234 107.01 311.725 110.176 306.823 111.434C297.541 113.864 288.475 114.688 278.889 113.43C275.375 112.953 272.556 111.521 270.821 109.179C268.001 105.362 268.782 101.241 269.78 97.684C270.821 94.0404 272.209 93.3464 275.549 84.0638C277.761 77.8176 275.809 83.0661 278.932 75.4319C280.71 71.0942 282.099 68.4049 280.624 67.1036C277.978 64.7179 275.852 65.889 273.163 68.1446C260.844 78.6417 252.125 90.9173 248.482 106.273C246.053 116.466 235.729 116.336 232.476 112.779C230.697 110.871 227.314 112.475 225.622 113.126C217.294 116.249 208.792 117.507 200.811 112.606C195.649 109.439 193.437 103.887 195.736 97.2069C197.688 91.5246 199.726 88.3147 201.678 82.6324C202.329 80.8106 203.457 76.9067 203.197 74.6945C202.763 71.1376 200.767 69.229 198.946 68.3615C195.953 66.8867 193.871 70.7038 192.873 72.7425C189.316 80.0732 186.497 87.7942 182.549 94.8646C177.474 103.93 169.623 112.519 160.427 114.08C154.875 115.035 151.058 115.946 146.243 115.295C141.298 114.644 138.435 112.259 136.744 105.926C136.093 103.453 137.091 98.8986 136.83 98.8552C136.527 98.7685 133.664 101.067 131.799 103.627C124.164 113.733 112.236 115.382 111.629 115.468C107.595 115.859 104.385 115.902 100.958 114.341C98.7024 113.3 97.8783 112.085 96.2299 112.085C94.6684 112.085 93.2803 113.386 90.4175 114.558C87.1642 115.859 82.5663 115.338 82.1326 114.731C81.7422 114.167 81.5687 110.09 82.1326 109.005C82.6965 108.008 84.4749 107.964 88.1185 107.14C93.1068 106.012 95.0154 107.184 94.8853 101.935C94.4949 85.235 107.291 60.814 124.381 55.9558C130.931 54.0906 137.611 54.3075 143.901 56.6064C146.894 57.6909 149.583 60.1633 151.015 53.6135C151.275 52.3989 152.88 52.0519 154.138 52.182C159.56 52.876 163.16 53.9605 164.071 55.1316C165.285 57.2571 162.77 61.6381 161.035 64.6745C155.049 74.9547 150.494 85.4952 147.978 94.3441C146.2 100.59 147.544 105.362 151.535 105.752C164.635 106.793 168.669 102.542 175.175 94.5609C182.463 85.6687 184.718 74.4776 188.318 64.1106C189.793 59.9464 187.494 57.5607 187.277 55.4353C186.974 52.3555 186.54 48.5384 187.928 47.1503C190.14 44.8948 193.654 45.4153 197.167 45.4153C201.418 45.4153 200.767 48.2781 200.724 49.6228C200.464 55.6088 203.197 58.2547 208.228 60.3368C209.877 61.0308 212.436 62.202 214.127 62.896C221.024 65.7155 221.545 68.6651 218.595 75.5186C215.863 81.9384 212.739 87.6207 209.92 93.6934C207.447 99.0721 208.792 104.06 214.778 105.882C225.058 108.962 235.642 105.709 238.895 90.5269C241.151 79.8997 244.708 66.7999 249.826 57.5607C251.084 55.2618 251.605 53.1363 255.682 53.1363C261.755 53.1363 261.495 54.3509 259.413 60.1199C256.506 67.3204 253.73 77.0802 252.863 81.3745C252.689 82.3287 253.947 82.8926 254.511 82.0685C257.808 77.4706 264.097 68.2747 269.346 63.8503C275.505 58.6885 280.277 54.3942 288.301 54.8714C295.719 55.3485 298.365 59.556 295.719 67.9711C293.203 76.0391 290.34 81.2877 287.304 89.1822C286.133 92.262 285.092 94.8212 284.181 97.7274C282.576 102.759 285.092 107.617 290.383 107.227C294.938 106.88 300.36 106.576 304.741 105.362C308.602 104.277 310.597 103.453 308.385 96.8599C304.221 84.5409 305.956 64.154 320.14 55.9124C328.295 51.141 341.828 51.4446 346.513 58.3415C351.154 65.195 349.636 71.3545 347.641 78.5984C345.558 86.1025 340.006 91.5246 334.541 96.5996C332.979 98.0744 329.9 100.33 330.333 102.239L330.29 102.412ZM108.896 97.3804C108.896 101.761 110.067 103.67 112.323 104.928C116.617 107.357 120.955 103.28 123.21 101.067C133.187 91.3511 136.57 82.2854 143.163 72.3521C145.462 68.9254 144.465 66.236 143.207 65.1516C141.558 63.7202 137.741 63.6334 135.703 64.154C132.319 65.0215 128.806 66.7999 126.03 69.0121C117.094 76.0825 109.98 83.0228 108.853 97.3804H108.896ZM320.877 85.4519C320.66 90.3968 321.701 94.1272 323.957 94.9079C326.082 95.602 328.164 93.997 329.422 92.9126C335.191 86.7965 339.703 80.0298 340.614 71.8316C340.787 70.0098 341.611 66.2794 337.534 64.0672C334.497 62.4189 329.726 63.0262 325.996 68.0578C322.265 73.5233 321.354 77.4706 320.834 85.4519H320.877ZM391.451 86.7098C391.624 85.9724 391.841 84.7578 391.624 82.7191C391.408 80.6804 390.106 75.909 388.111 75.3885C385.248 74.868 382.819 78.208 381.604 80.0732C378.178 85.2783 374.881 90.2233 371.107 95.255C368.678 98.4214 370.413 100.894 371.671 102.325C373.363 104.234 377.05 106.489 380.52 104.581C385.769 101.675 390.193 91.9583 391.408 86.7098H391.451Z" fill="#E86F3D"/>
<path d="M77.231 155.982C78.7058 157.11 79.9637 158.151 81.265 159.105C81.959 159.582 82.1759 160.103 82.1759 160.97C82.1325 163.877 82.1759 166.783 82.1759 169.689C82.1759 169.949 82.0458 170.296 81.8289 170.47C80.1806 172.031 78.5323 173.593 76.884 175.155C76.7105 175.285 76.4936 175.458 76.2767 175.458C71.2884 175.458 66.2567 175.458 61.2684 175.458C61.1817 175.458 61.1383 175.458 61.0515 175.458V137.634H61.5287C66.4302 137.634 71.2884 137.634 76.1899 137.634C76.4502 137.634 76.7538 137.764 76.9274 137.937C78.3154 139.326 79.6601 140.757 81.0048 142.188C81.1783 142.362 81.3084 142.709 81.3084 142.926C81.3084 145.875 81.3084 148.868 81.3084 151.818C81.3084 152.078 81.1783 152.382 81.0048 152.555C79.9637 153.596 78.8793 154.637 77.8383 155.679C77.7081 155.809 77.5346 155.895 77.3177 156.069L77.231 155.982ZM72.4596 168.214V159.843H70.6378V168.214H72.4596ZM72.4162 152.599V144.704C71.9391 144.704 71.5053 144.704 71.1149 144.704C70.6811 144.704 70.5944 144.834 70.5944 145.225C70.5944 147.524 70.5944 149.823 70.5944 152.122C70.5944 152.252 70.5944 152.425 70.5944 152.599H72.3728H72.4162Z" fill="#E86F3D"/>
<path d="M313.373 156.589C313.72 156.893 314.024 157.153 314.327 157.457C315.238 158.281 316.193 159.105 317.103 159.973C317.277 160.103 317.407 160.407 317.407 160.623C317.407 165.395 317.407 170.166 317.407 174.938C317.407 175.068 317.407 175.241 317.407 175.415H308.298V160.233H306.389C306.389 160.233 306.389 160.667 306.389 160.84C306.389 165.482 306.389 170.166 306.389 174.808C306.389 175.285 306.259 175.458 305.782 175.458C303.049 175.458 300.317 175.458 297.584 175.458H297.02V137.634C297.02 137.634 297.367 137.634 297.497 137.634C302.138 137.634 306.78 137.634 311.421 137.634C311.681 137.634 312.028 137.764 312.202 137.937C313.85 139.499 315.455 141.061 317.06 142.622C317.234 142.796 317.364 143.099 317.364 143.316C317.364 146.396 317.364 149.476 317.364 152.599C317.364 152.859 317.19 153.206 317.017 153.38C315.932 154.377 314.848 155.288 313.763 156.242C313.633 156.373 313.503 156.459 313.33 156.633L313.373 156.589ZM308.255 148.868C308.255 147.957 308.255 147.047 308.255 146.092C308.255 144.617 308.255 144.617 306.736 144.661C306.389 144.661 306.346 144.791 306.346 145.095C306.346 147.567 306.346 150.083 306.346 152.555C306.346 152.859 306.433 152.989 306.736 152.989C307.04 152.989 307.387 152.989 307.691 152.989C308.081 152.989 308.211 152.902 308.211 152.469C308.211 151.254 308.211 150.04 308.211 148.825L308.255 148.868Z" fill="#E86F3D"/>
<path d="M179.86 175.371V137.547C179.86 137.547 180.207 137.547 180.38 137.547C182.289 137.547 184.154 137.547 186.063 137.547C186.497 137.547 186.67 137.677 186.8 138.068C188.232 143.056 189.663 148.001 191.138 152.989C191.181 153.163 191.225 153.336 191.311 153.466C191.355 153.553 191.485 153.596 191.528 153.683C191.615 153.596 191.702 153.51 191.702 153.38C191.702 153.249 191.702 153.119 191.702 152.989C191.702 148.044 191.702 143.143 191.702 138.198C191.702 137.981 191.702 137.807 191.702 137.547H200.464V175.371C200.464 175.371 200.16 175.371 199.987 175.371C197.905 175.371 195.779 175.371 193.697 175.371C193.307 175.371 193.177 175.241 193.09 174.894C191.789 170.21 190.487 165.525 189.186 160.84C189.099 160.58 189.012 160.32 188.926 160.103C188.839 160.103 188.796 160.103 188.709 160.146V175.371H179.86Z" fill="#E86F3D"/>
<path d="M220.417 137.547H221.024C222.89 137.547 224.755 137.547 226.62 137.547C227.054 137.547 227.271 137.677 227.401 138.111C228.832 143.099 230.264 148.088 231.738 153.076C231.825 153.293 231.999 153.51 232.129 153.727C232.172 153.466 232.302 153.249 232.302 152.989C232.302 148.088 232.302 143.186 232.302 138.284V137.59H241.108V175.371C241.108 175.371 240.761 175.371 240.587 175.371C238.505 175.371 236.423 175.371 234.341 175.371C233.951 175.371 233.777 175.241 233.69 174.851C232.389 170.123 231.088 165.438 229.743 160.71C229.656 160.493 229.57 160.276 229.483 160.016C229.396 160.016 229.353 160.016 229.266 160.06V175.285C229.006 175.285 228.832 175.285 228.659 175.285C226.099 175.285 223.54 175.285 220.981 175.285C220.547 175.285 220.374 175.198 220.374 174.721C220.374 162.445 220.374 150.213 220.374 137.937C220.374 137.807 220.374 137.634 220.374 137.417L220.417 137.547Z" fill="#E86F3D"/>
<path d="M101.218 137.547C101.218 137.547 101.609 137.547 101.782 137.547C106.423 137.547 111.021 137.547 115.663 137.547C116.01 137.547 116.27 137.634 116.53 137.894C118.135 139.456 119.74 141.017 121.345 142.579C121.518 142.752 121.649 143.056 121.649 143.316C121.649 146.396 121.649 149.476 121.649 152.599C121.649 152.859 121.475 153.163 121.302 153.336C120.087 154.421 118.872 155.462 117.615 156.589C117.831 156.806 118.048 156.98 118.222 157.153C119.263 158.108 120.347 159.018 121.388 159.973C121.518 160.103 121.649 160.32 121.649 160.537C121.649 165.395 121.649 170.21 121.649 175.068C121.649 175.155 121.649 175.285 121.649 175.415C121.432 175.415 121.258 175.415 121.085 175.415C118.439 175.415 115.836 175.415 113.19 175.415C112.67 175.415 112.54 175.285 112.54 174.764C112.54 170.123 112.54 165.525 112.54 160.884C112.54 160.667 112.54 160.45 112.54 160.19H110.631C110.631 160.19 110.631 160.623 110.631 160.84C110.631 165.482 110.631 170.166 110.631 174.808C110.631 175.285 110.501 175.415 110.024 175.415C107.291 175.415 104.515 175.415 101.782 175.415H101.262V137.547H101.218ZM112.453 144.704C112.019 144.704 111.585 144.704 111.195 144.704C110.761 144.704 110.588 144.791 110.588 145.311C110.588 146.656 110.588 148.001 110.588 149.345C110.588 150.43 110.588 151.514 110.588 152.599C110.588 152.729 110.761 152.989 110.891 152.989C111.412 152.989 111.889 152.989 112.453 152.989V144.704Z" fill="#E86F3D"/>
<path d="M143.38 137.59H156.393C158.085 150.17 159.777 162.749 161.512 175.371C161.338 175.371 161.165 175.371 161.035 175.371C158.302 175.371 155.612 175.371 152.88 175.371C152.446 175.371 152.316 175.241 152.316 174.808C152.142 172.726 151.969 170.643 151.795 168.475C150.971 168.475 150.19 168.475 149.366 168.475C148.065 168.475 148.065 168.475 147.978 169.776C147.848 171.468 147.718 173.159 147.588 174.894C147.588 175.198 147.544 175.371 147.154 175.371C144.335 175.371 141.515 175.371 138.696 175.371C138.609 175.371 138.565 175.371 138.392 175.371C140.04 162.792 141.689 150.213 143.337 137.59H143.38ZM151.275 161.361C151.188 160.103 151.058 158.888 150.971 157.674C150.711 154.117 150.407 150.603 150.104 147.09C150.104 146.916 149.93 146.7 149.8 146.656C149.453 146.569 149.496 146.873 149.496 147.09C149.41 148.435 149.323 149.736 149.236 151.081C149.063 153.553 148.932 156.026 148.759 158.541C148.716 159.496 148.629 160.45 148.585 161.404H151.275V161.361Z" fill="#E86F3D"/>
<path d="M275.635 158.975C274.03 158.975 272.469 158.975 270.951 158.975C270.474 158.975 270.3 159.105 270.3 159.582C270.3 162.272 270.3 164.961 270.3 167.65C270.3 167.824 270.3 167.997 270.3 168.214C270.56 168.214 270.734 168.214 270.951 168.214C272.816 168.214 274.725 168.214 276.59 168.214C276.98 168.214 277.154 168.301 277.11 168.691C277.11 170.774 277.11 172.812 277.11 174.894C277.11 175.198 277.11 175.415 276.676 175.415C271.515 175.415 266.396 175.415 261.234 175.415C261.148 175.415 261.018 175.415 260.887 175.415V137.634H276.676C276.676 137.634 276.676 137.981 276.676 138.154C276.676 140.15 276.676 142.188 276.676 144.184C276.676 144.661 276.503 144.791 276.069 144.791C274.291 144.791 272.469 144.791 270.69 144.791C270.43 144.791 270.213 144.791 270.213 145.138C270.213 147.35 270.213 149.562 270.213 151.818H275.549V159.019L275.635 158.975Z" fill="#E86F3D"/>
<path d="M346.947 175.415C346.947 175.415 346.6 175.415 346.426 175.415C343.563 175.415 340.7 175.415 337.881 175.415C337.404 175.415 337.317 175.285 337.317 174.851C337.317 162.619 337.317 150.343 337.317 138.111C337.317 137.938 337.317 137.764 337.317 137.59H346.947V175.415Z" fill="#E86F3D"/>
<path d="M149.193 129.219H141.515V134.684H149.193V129.219Z" fill="#E86F3D"/>
<path d="M158.432 129.219H150.754V134.684H158.432V129.219Z" fill="#E86F3D"/>
</svg>
